<?xml version="1.0" encoding="UTF-8" standalone="no"?><!DOCTYPE svg PUBLIC "-//W3C//DTD SVG 1.1//EN" "http://www.w3.org/Graphics/SVG/1.1/DTD/svg11.dtd"><svg width="71" height="71" viewBox="0 0 71 49" version="1.1" xmlns="http://www.w3.org/2000/svg" xmlns:xlink="http://www.w3.org/1999/xlink" xml:space="preserve" xmlns:serif="http://www.serif.com/" style="fill-rule:evenodd;clip-rule:evenodd;stroke-linejoin:round;stroke-miterlimit:2;"><g><path d="M0.004,44.371c-0,1.183 0.426,2.224 1.277,3.123c0.852,0.899 1.917,1.325 3.195,1.278l57.646,0c1.231,0 2.272,-0.426 3.124,-1.278c0.852,-0.852 1.302,-1.893 1.349,-3.123l-0,-8.875c1.183,0 2.224,-0.449 3.124,-1.348c0.899,-0.9 1.325,-1.941 1.277,-3.124l0,-13.276c0,-1.23 -0.426,-2.295 -1.277,-3.194c-0.852,-0.9 -1.894,-1.326 -3.124,-1.278l-0,-8.874c-0,-1.231 -0.45,-2.272 -1.349,-3.124c-0.899,-0.852 -1.94,-1.278 -3.124,-1.278l-57.646,0c-1.23,0 -2.295,0.426 -3.195,1.278c-0.899,0.852 -1.325,1.893 -1.277,3.124l-0,39.969Zm8.874,-8.875l-0,-22.22c-0,-1.231 0.426,-2.272 1.278,-3.124c0.851,-0.852 1.916,-1.278 3.194,-1.278l39.898,0c1.231,0 2.272,0.426 3.124,1.278c0.852,0.852 1.301,1.893 1.349,3.124l-0,22.22c-0,1.184 -0.45,2.225 -1.349,3.124c-0.899,0.899 -1.941,1.325 -3.124,1.278l-39.898,0c-1.23,0 -2.295,-0.426 -3.194,-1.278c-0.9,-0.852 -1.326,-1.893 -1.278,-3.124Zm4.472,-2.271c0,0.615 0.213,1.136 0.639,1.562c0.426,0.425 0.947,0.662 1.562,0.709c0.615,0.048 1.136,-0.189 1.562,-0.709c0.426,-0.521 0.639,-1.042 0.639,-1.562l-0,-17.749c-0,-0.567 -0.213,-1.088 -0.639,-1.561c-0.426,-0.474 -0.947,-0.687 -1.562,-0.639c-0.615,0.047 -1.136,0.26 -1.562,0.639c-0.426,0.378 -0.639,0.899 -0.639,1.561l0,17.749Zm8.874,-0c0,0.615 0.213,1.136 0.639,1.562c0.426,0.425 0.947,0.662 1.562,0.709c0.615,0.048 1.136,-0.189 1.562,-0.709c0.426,-0.521 0.639,-1.042 0.639,-1.562l-0,-17.749c-0,-0.567 -0.213,-1.088 -0.639,-1.561c-0.426,-0.474 -0.947,-0.687 -1.562,-0.639c-0.615,0.047 -1.136,0.26 -1.562,0.639c-0.426,0.378 -0.639,0.899 -0.639,1.561l0,17.749Zm8.874,-0c0,0.615 0.213,1.136 0.639,1.562c0.426,0.425 0.947,0.662 1.562,0.709c0.615,0.048 1.136,-0.189 1.562,-0.709c0.426,-0.521 0.639,-1.042 0.639,-1.562l-0,-17.749c-0,-0.567 -0.213,-1.088 -0.639,-1.561c-0.426,-0.474 -0.947,-0.687 -1.562,-0.639c-0.615,0.047 -1.136,0.26 -1.562,0.639c-0.426,0.378 -0.639,0.899 -0.639,1.561l0,17.749Zm8.875,-0c-0,0.615 0.213,1.136 0.638,1.562c0.426,0.425 0.947,0.662 1.562,0.709c0.616,0.048 1.136,-0.189 1.562,-0.709c0.426,-0.521 0.639,-1.042 0.639,-1.562l0,-17.749c0,-0.567 -0.213,-1.088 -0.639,-1.561c-0.426,-0.474 -0.946,-0.687 -1.562,-0.639c-0.615,0.047 -1.136,0.26 -1.562,0.639c-0.425,0.378 -0.638,0.899 -0.638,1.561l-0,17.749Zm8.874,-0c-0,0.615 0.213,1.136 0.639,1.562c0.426,0.425 0.946,0.662 1.561,0.709c0.616,0.048 1.136,-0.189 1.562,-0.709c0.426,-0.521 0.639,-1.042 0.639,-1.562l0,-17.749c0,-0.567 -0.213,-1.088 -0.639,-1.561c-0.426,-0.474 -0.946,-0.687 -1.562,-0.639c-0.615,0.047 -1.135,0.26 -1.561,0.639c-0.426,0.378 -0.639,0.899 -0.639,1.561l-0,17.749Z" style="fill:#fd688d;fill-rule:nonzero;"/></g></svg>
