<svg
   xmlns="http://www.w3.org/2000/svg"
   viewBox="-1.94 -6.52 120 50"
   width="160"
   height="71">
<style>
   .st0{fill:#00B0AD;}
   .st1{fill:#003B49;}
   .st2{fill:url(#SVGID_1_);}
   .st3{fill:url(#SVGID_2_);}
   .st4{fill:url(#SVGID_3_);}
</style>
<g transform="translate(0.95686168)">
   <g transform="matrix(0.09210143,0,0,0.09210143,55.354376,-39.604874)">
      <path class="st1" d="m 168,759.8 c 0,0 -20.4,25.2 -63.2,25.2 -56.2,0 -95.1,-43.7 -95.1,-99.9 0,-56.8 38.9,-100.2 95.1,-100.2 42.8,0 63.2,24.9 63.2,24.9 l -10.2,14 c 0,0 -19.5,-21.7 -52.6,-21.7 -45.3,0 -76.6,37.6 -76.6,83 0,45 31.3,82.6 76.6,82.6 33.2,0 52.6,-21.7 52.6,-21.7 z"/>
      <path class="st1" d="m 413.1,780.5 h -14 L 273.6,620 V 780.5 H 255.4 V 589.1 h 14.7 L 394.9,748.6 V 589.1 h 18.2 z"/>
      <path class="st1" d="M 556,780.5 H 537.8 V 589.1 H 556 Z"/>
   </g>
   <g transform="matrix(0.08946031,0,0,0.08946031,0.33459851,68.416136)">
      <path class="st0" d="m 428.4,-643.03998 -1.9,-1 -127.9,-93.4 -214.8,161.4 41.1,30 h -0.1 l 176.2,128.6 215.1,-161.6 z m -286.1,36.4 115.8,-87 32.3,23.5 -115.8,87 z m 189.9,91.3 -31.9,24 -116.7,-85.2 115.7,-86.9 75.5,55.1 -83.8,63 z m 51.6,-86.4 32.2,23.5 -74.9,56.2 -32.2,-23.5 z m 47.4,25.8 2.2,-1.9 0.7,-0.5 -41.3,-30.1 31.9,-24 73.5,53.6 -115.8,87 -32,-23.3 z m -47.4,-39.2 -116.8,-85.2 31.7,-23.8 116.7,85.2 z m -250.4,15.2 32.3,23.5 -31.7,23.8 -32.3,-23.5 z m 41.3,30.1 117,85.4 -31.7,23.8 -117,-85.4 z m 166.8,61.3 32,23.3 -72.5,54.5 -32,-23.3 z"/>
      <g transform="translate(0,-747.03998)">
         <linearGradient id="SVGID_1_" gradientUnits="userSpaceOnUse" x1="299.94351" y1="609.47742" x2="299.94351" y2="147.70531">
            <stop offset="0" style="stop-color:#D1E1D7"/>
            <stop offset="1" style="stop-color:#00B0AD"/>
         </linearGradient>
         <path class="st2" d="m 299.9,480.5 c -1.2,0 -2.3,-0.4 -3.4,-1.1 L 85.1,327.8 c -2.1,-1.5 -3.4,-4.3 -3.4,-7.3 0,-3 1.3,-5.8 3.4,-7.3 l 105.7,-75.8 6.8,14.5 -95.6,68.6 197.9,141.9 197.9,-141.9 -95.5,-68.5 6.8,-14.5 105.7,75.8 c 2.1,1.5 3.4,4.3 3.4,7.3 0,3 -1.3,5.8 -3.4,7.3 L 303.3,479.4 c -1,0.7 -2.2,1.1 -3.4,1.1 z"/>
         <linearGradient id="SVGID_2_" gradientUnits="userSpaceOnUse" x1="299.94351" y1="609.47742" x2="299.94351" y2="147.70531">
            <stop offset="0" style="stop-color:#D1E1D7"/>
            <stop offset="1" style="stop-color:#00B0AD"/>
         </linearGradient>
         <path class="st3" d="m 299.9,328.9 c -1.2,0 -2.3,-0.4 -3.4,-1.1 L 85.1,176.2 c -2.1,-1.5 -3.4,-4.3 -3.4,-7.3 0,-3 1.3,-5.8 3.4,-7.3 L 296.6,10.1 c 2.1,-1.5 4.7,-1.5 6.8,0 l 211.5,151.6 c 2.1,1.5 3.4,4.3 3.4,7.3 0,3 -1.3,5.8 -3.4,7.3 L 303.3,327.8 c -1,0.8 -2.2,1.1 -3.4,1.1 z M 102,169 299.9,310.9 497.9,169 299.9,27.1 Z"/>
         <linearGradient id="SVGID_3_" gradientUnits="userSpaceOnUse" x1="88.464897" y1="609.47742" x2="88.464897" y2="147.70531">
            <stop offset="0" style="stop-color:#D1E1D7"/>
            <stop offset="1" style="stop-color:#00B0AD"/>
         </linearGradient>
         <rect x="81.699997" y="169" class="st4" width="13.5" height="151.60001"/>
      </g>
   </g>
</g>
</svg>