<?xml version="1.0" encoding="UTF-8" standalone="no"?><!DOCTYPE svg PUBLIC "-//W3C//DTD SVG 1.1//EN" "http://www.w3.org/Graphics/SVG/1.1/DTD/svg11.dtd">
<svg width="71" height="71" viewBox="0 0 54 51" version="1.1" xmlns="http://www.w3.org/2000/svg" xmlns:xlink="http://www.w3.org/1999/xlink" xml:space="preserve" xmlns:serif="http://www.serif.com/" style="fill-rule:evenodd;clip-rule:evenodd;stroke-linejoin:round;stroke-miterlimit:2;"><g><g><path d="M15.759,44.862l-0.001,0.003l-2.874,-1.825l-2.206,-3.055l-1.105,-5.047l1.979,-4.431l4.749,1.36l8.767,-5.294l0.002,0l2.642,1.679l0.001,-0.001l2.647,1.68l-1.964,9.613l3.115,3.633l-3.642,3.375l-5.397,0.918l-3.842,-0.785l-2.871,-1.823Z" style="fill:#f6c84f;"/><path d="M26.596,21.856c-1.095,4.888 -9.011,7.975 -13.111,7.499c-9.964,-1.155 -17.487,-11.517 0.51,-11.88c4.567,-0.17 13.476,0.469 12.601,4.381Zm7.861,4.993c3.54,-2.222 7.492,5.306 9.024,9.349c6.35,15.822 -6.693,13.126 -11.549,4.871c-1.998,-3.396 -1.897,-11.443 2.527,-14.219l-0.002,-0.001Z" style="fill:#f2ffff;"/><path d="M4.454,19.647c0.504,-0.391 1.16,-0.745 1.983,-1.049l0.257,0.757l1.305,1.553l1.911,1.627l1.469,-0.205l7.346,-0.716l7.72,0.777c-0.243,0.726 -0.637,1.41 -1.142,2.043c-2.285,-0.429 -7.62,-0.558 -10.518,-0.562c-0.775,0.856 -1.055,3.765 -1.116,5.501c-0.866,-0.09 -1.724,-0.25 -2.563,-0.476c-0.072,-1.358 0.427,-3.299 0.79,-4.377c-2.271,0.116 -4.673,1.169 -5.999,1.904c-0.578,-0.431 -1.105,-0.92 -1.569,-1.46l2.944,-1.52c-0.455,-0.216 -1.891,-2.344 -2.82,-3.798l0.002,0.001Zm40.437,25.678c-1.785,-0.268 -4.421,-0.727 -4.807,-1.042l-0.403,3.132c-0.661,-0.185 -1.343,-0.463 -2.025,-0.825c0.23,-1.427 0.375,-3.914 -0.356,-5.937c-0.931,0.718 -2.663,1.878 -4.033,2.321c-0.489,-0.593 -0.94,-1.23 -1.336,-1.902l-0.088,-0.155c1.694,-0.701 4.464,-2.029 5.02,-3.023c-1.086,-2.524 -3.199,-7.126 -4.475,-8.957c0.437,-0.676 0.965,-1.274 1.594,-1.757l3.642,6.441l2.033,6.666l0.344,1.358l2.322,1.059l2.02,0.56l0.844,-0.058c0.006,0.83 -0.099,1.533 -0.296,2.119Z" style="fill:#0078d4;"/><path d="M34.414,10.849c1.727,0.412 3.305,1.097 4.497,1.852c1.189,0.756 2.455,1.876 3.505,3.227c1.04,-0.322 2.32,-0.789 3.605,-1.378c1.883,-0.862 3.623,-1.915 4.667,-3.043c0.531,-0.568 1.454,-0.629 2.061,-0.134c0.319,0.258 0.501,0.636 0.501,1.035c0,0.33 -0.126,0.651 -0.358,0.899c-1.428,1.542 -3.585,2.79 -5.589,3.708c-1.178,0.538 -2.355,0.987 -3.395,1.332c1.365,2.931 1.419,6.416 -1.741,9.573l-0.002,0c4.219,5.16 9.465,17.096 2.893,21.695c-3.774,2.64 -11.13,-1.068 -13.185,-4.029c-2.258,2.015 -8.337,5.279 -14.595,2.216l-5.812,3.029l-0.001,0.001l-0,-0.001l-0.002,0.001l0.002,-0.003l0.826,-6.196c-5.357,-4.311 -4.399,-10.824 -3.249,-13.543c-3.692,-0.687 -10.098,-5.717 -8.893,-9.988c2.094,-7.442 15.843,-7.318 22.513,-5.564l-0,-0.001c1.939,-3.929 5.401,-5.181 8.806,-5.086c-0.048,-1.034 -0.043,-2.227 0.05,-3.451c0.161,-2.09 0.589,-4.434 1.582,-6.256c0.372,-0.671 1.253,-0.937 1.964,-0.594c0.718,0.344 1.003,1.172 0.635,1.845c-0.726,1.33 -1.117,3.239 -1.269,5.202c-0.102,1.339 -0.086,2.628 -0.016,3.652Zm-30.644,13.366c1.329,-0.762 3.707,-1.463 5.001,-1.776c-1.873,-1.313 -2.69,-2.686 -2.978,-3.574c-2.928,1.322 -3.259,3.389 -2.023,5.35Zm-0,0l-0.002,0l0.002,0Zm36.861,23.403l0,0.002l0,-0.002Zm0,0c2.398,0.348 4.319,-0.713 4.534,-3.756c-0.985,0.078 -2.645,-0.123 -4.642,-1.263c0.174,1.245 0.367,3.578 0.108,5.019Zm-12.916,-19.359l-0.002,0.002l-1.284,-0.817c-1.632,1.777 -4.966,3.123 -6.428,3.573c0.148,1.995 1.93,3.533 2.805,4.057l-0,-0.002c0.841,0.568 3.028,1.551 5.057,0.935c-0.101,-1.442 -0.013,-4.849 1.135,-6.933l-1.283,-0.815Zm-8.585,11.928c-4.295,-2.728 -5.548,-6.627 -5.64,-8.235l-1.592,-0.084c-2.814,5.992 1.599,10.635 4.32,12.363l-0.002,0.001c2.724,1.729 8.955,3.841 13.823,-0.843l-0.673,-1.36c-1.623,0.522 -5.942,0.882 -10.236,-1.842Zm7.135,-17.325c-2.762,-0.337 -6.88,-0.423 -9.015,-0.419c-2.901,1.86 -3.274,4.996 -3.026,6.964c3.928,0.064 10.295,-2.508 12.041,-6.545Zm-13.366,6.42c-0.529,-2.853 1.177,-5.543 2.222,-6.637c-5.37,0.192 -8.757,1.624 -10.411,2.746c1.77,1.819 4.81,3.375 8.189,3.891Zm13.7,-7.448c0.834,-3.888 -8.051,-4.524 -12.607,-4.354c-2.895,0.059 -5.131,0.375 -6.801,0.872c0.743,2.169 2.467,3.248 3.305,3.528c5.281,-1.13 12.141,-0.608 16.103,-0.044l0,-0.002Zm7.877,5.002l0,0.001c2.034,3.242 5.104,9.026 5.957,14.05c0.59,0.624 2.298,1.726 4.717,1.565c-0.132,-1.641 -0.651,-3.707 -1.673,-6.253c-1.53,-4.034 -5.47,-11.538 -9.001,-9.363Zm-0.89,0.673l-0.001,0c-3.338,3.026 -3.507,9.533 -1.979,12.933c2.037,-0.518 4.996,-2.01 5.753,-5.231c-0.791,-1.864 -2.411,-5.42 -3.773,-7.702Zm-1.363,14.042c1.771,2.752 4.439,4.822 6.895,5.687c0.494,-1.861 0.646,-5.346 -1.164,-10.098c-0.693,1.32 -2.715,3.809 -5.731,4.411Z" style="fill:#000000;"/></g></g></svg>
