<svg width="71" height="71" viewBox="0 0 71 71" fill="none" xmlns="http://www.w3.org/2000/svg">
<path d="M49.5 7.72754V12.3942H55.534L43.8673 24.0608L47.1667 27.3602L58.8333 15.6935V21.7275H63.5V7.72754H49.5ZM21.5 7.72754V12.3942H15.466L27.1327 24.0608L23.8333 27.3602L12.1667 15.6935V21.7275H7.5V7.72754H21.5ZM44.8333 10.0609L35.5 0.727539L26.1667 10.0609L29.466 13.3602L33.1667 9.66187V24.0608H37.8333V9.66187L41.534 13.3602L44.8333 10.0609ZM49.5 63.7275V59.0608H55.534L43.8673 47.3942L47.1667 44.0948L58.8333 55.7615V49.7275H63.5V63.7275H49.5ZM21.5 63.7275V59.0608H15.466L27.1327 47.3942L23.8333 44.0948L12.1667 55.7615V49.7275H7.5V63.7275H21.5ZM44.8333 61.3942L35.5 70.7275L26.1667 61.3942L29.466 58.0948L33.1667 61.7932V47.3942H37.8333V61.7932L41.534 58.0948L44.8333 61.3942ZM9.83333 26.3942L0.5 35.7275L9.83333 45.0608L13.1327 41.7615L9.43433 38.0608H23.8333V33.3942H9.43433L13.1327 29.6935L9.83333 26.3942ZM61.1667 26.3942L70.5 35.7275L61.1667 45.0608L57.8673 41.7615L61.5657 38.0608H47.1667V33.3942H61.5657L57.8673 29.6935L61.1667 26.3942Z" fill="currentColor"/>
</svg>
