<svg width="71" height="71" viewBox="0 0 71 71" fill="none" xmlns="http://www.w3.org/2000/svg">
<g clip-path="url(#clip0_2130_424)">
<path fill-rule="evenodd" clip-rule="evenodd" d="M2.97976 0.727539H67.4534L69.9332 3.41985V68.0352L67.4534 70.7275H2.97976L0.5 68.0352V3.41985L2.97976 0.727539ZM3.61741 16.8813H66.8158V4.11216H3.61741V16.8813Z" fill="currentColor"/>
<path fill-rule="evenodd" clip-rule="evenodd" d="M10.171 12.7275C10.7817 12.7275 11.3674 12.4641 11.7993 11.9953C12.2311 11.5264 12.4737 10.8905 12.4737 10.2275C12.4737 9.5645 12.2311 8.92861 11.7993 8.45977C11.3674 7.99093 10.7817 7.72754 10.171 7.72754C9.56035 7.72754 8.97466 7.99093 8.54283 8.45977C8.111 8.92861 7.86841 9.5645 7.86841 10.2275C7.86841 10.8905 8.111 11.5264 8.54283 11.9953C8.97466 12.4641 9.56035 12.7275 10.171 12.7275ZM17.0789 12.7275C17.6896 12.7275 18.2753 12.4641 18.7072 11.9953C19.139 11.5264 19.3816 10.8905 19.3816 10.2275C19.3816 9.5645 19.139 8.92861 18.7072 8.45977C18.2753 7.99093 17.6896 7.72754 17.0789 7.72754C16.4683 7.72754 15.8826 7.99093 15.4507 8.45977C15.0189 8.92861 14.7763 9.5645 14.7763 10.2275C14.7763 10.8905 15.0189 11.5264 15.4507 11.9953C15.8826 12.4641 16.4683 12.7275 17.0789 12.7275ZM23.9868 12.7275C24.5975 12.7275 25.1832 12.4641 25.6151 11.9953C26.0469 11.5264 26.2895 10.8905 26.2895 10.2275C26.2895 9.5645 26.0469 8.92861 25.6151 8.45977C25.1832 7.99093 24.5975 7.72754 23.9868 7.72754C23.3762 7.72754 22.7905 7.99093 22.3586 8.45977C21.9268 8.92861 21.6842 9.5645 21.6842 10.2275C21.6842 10.8905 21.9268 11.5264 22.3586 11.9953C22.7905 12.4641 23.3762 12.7275 23.9868 12.7275Z" fill="currentColor"/>
<path d="M46.4857 25.7275L43.7701 26.5328L39.1991 27.8689L36.2304 28.7475L32.7389 29.7907L22.4162 32.8107L20.7632 39.8756L24.9969 44.4696L28.2016 47.9654L31.2378 44.6343L31.2209 40.4064L37.2425 33.8723L38.4063 35.1168L37.934 38.6127L39.6544 40.4796L42.8761 39.9671L44.0231 41.23L38.0015 47.7458L34.0883 47.7275L31.0522 51.022L33.5148 53.7125L38.1364 58.7275L44.6809 57.007L45.4905 53.7125L46.4688 49.7957L48.5941 41.1751L49.5387 37.3864L51.1579 30.8523L46.4857 25.7275Z" fill="white"/>
</g>
<defs>
<clipPath id="clip0_2130_424">
<rect width="70" height="70" fill="white" transform="translate(0.5 0.727539)"/>
</clipPath>
</defs>
</svg>
