<svg width="294" height="313" viewBox="0 0 294 313" fill="none" xmlns="http://www.w3.org/2000/svg">
<g>
<path d="M276.438 80.6421L257.971 74.3087C257.748 74.2321 257.449 74.1938 257.15 74.1938C256.851 74.1938 256.553 74.2321 256.33 74.3087L237.864 80.6421C237.412 80.7952 237.043 81.3203 237.043 81.8016V108.185C237.043 108.666 237.353 109.301 237.728 109.602L256.46 124.292C256.65 124.44 256.895 124.516 257.145 124.516C257.395 124.516 257.645 124.44 257.83 124.292L276.563 109.602C276.938 109.306 277.248 108.672 277.248 108.185V81.8016C277.259 81.3203 276.889 80.8007 276.438 80.6421ZM263.39 101.65C260.754 104.302 256.705 104.668 253.683 102.749L249.472 106.987C249.39 107.069 249.279 107.115 249.165 107.115C249.05 107.115 248.939 107.069 248.857 106.987L247.009 105.128C246.929 105.046 246.884 104.934 246.884 104.819C246.884 104.704 246.929 104.592 247.009 104.51L251.222 100.271C249.314 97.2248 249.678 93.1554 252.314 90.5034C255.374 87.4237 260.33 87.4237 263.39 90.5034C266.449 93.5823 266.449 98.5701 263.39 101.65ZM254.773 99.174C255.177 99.5858 255.657 99.9129 256.186 100.138C256.716 100.362 257.284 100.479 257.859 100.481C258.434 100.483 259.002 100.371 259.534 100.151C260.065 99.9305 260.548 99.6067 260.954 99.1975C261.36 98.789 261.682 98.3034 261.9 97.7683C262.12 97.234 262.231 96.6612 262.229 96.0825C262.226 95.5046 262.111 94.9326 261.887 94.4C261.664 93.8666 261.338 93.3835 260.93 92.9776C260.526 92.5658 260.046 92.2387 259.517 92.0139C258.987 91.7891 258.418 91.6726 257.844 91.6709C257.269 91.6684 256.701 91.7808 256.169 92.0005C255.638 92.2211 255.155 92.5448 254.749 92.9541C254.343 93.3626 254.021 93.8482 253.802 94.3833C253.583 94.9175 253.472 95.4904 253.474 96.0691C253.477 96.6469 253.592 97.2189 253.816 97.7515C254.039 98.2849 254.364 98.768 254.773 99.174Z" fill="currentColor"/>
<path d="M55.3097 193.867L36.8431 187.534C36.6203 187.458 36.3213 187.419 36.0224 187.419C35.7235 187.419 35.4246 187.458 35.2018 187.534L16.7352 193.867C16.2841 194.021 15.9146 194.546 15.9146 195.027V221.411C15.9146 221.892 16.2243 222.526 16.5993 222.827L35.3322 237.518C35.5224 237.666 35.767 237.742 36.017 237.742C36.267 237.742 36.517 237.666 36.7018 237.518L55.4347 222.827C55.8097 222.532 56.1194 221.898 56.1194 221.411V195.027C56.1303 194.546 55.7608 194.026 55.3097 193.867ZM42.2613 214.875C39.6255 217.527 35.5768 217.894 32.5552 215.974L28.3434 220.213C28.2617 220.294 28.1513 220.34 28.0363 220.34C27.9213 220.34 27.811 220.294 27.7293 220.213L25.8816 218.354C25.8007 218.271 25.7553 218.16 25.7553 218.045C25.7553 217.929 25.8007 217.818 25.8816 217.735L30.0933 213.497C28.1858 210.45 28.5499 206.381 31.1856 203.729C34.2453 200.649 39.2016 200.649 42.2613 203.729C45.321 206.808 45.321 211.796 42.2613 214.875ZM33.6453 212.4C34.0484 212.811 34.5285 213.138 35.0581 213.363C35.5876 213.588 36.156 213.705 36.7305 213.706C37.305 213.709 37.8743 213.596 38.4056 213.377C38.9368 213.156 39.4194 212.832 39.8257 212.423C40.232 212.015 40.5537 211.529 40.7725 210.994C40.9913 210.46 41.1028 209.887 41.1005 209.308C41.0982 208.73 40.9822 208.158 40.7592 207.626C40.5362 207.092 40.2105 206.609 39.8011 206.203C39.398 205.791 38.9179 205.464 38.3884 205.239C37.8588 205.015 37.2904 204.898 36.7159 204.896C36.1414 204.894 35.5721 205.006 35.0409 205.226C34.5097 205.447 34.027 205.77 33.6208 206.18C33.2146 206.588 32.8928 207.074 32.6739 207.609C32.4551 208.143 32.3436 208.716 32.346 209.295C32.3482 209.873 32.4642 210.445 32.6872 210.977C32.9103 211.511 33.2359 211.994 33.6453 212.4Z" fill="currentColor"/>
<path fill-rule="evenodd" clip-rule="evenodd" d="M0 74.1938H56.2872V124.516H0V74.1938ZM51.5966 119.941V85.6305H4.6906V119.941H51.5966ZM38.803 95.9701L29.0864 104.157C27.5033 103.841 25.8006 104.312 24.6444 105.57C22.9206 107.455 23.0848 110.346 25.0173 112.03C26.9475 113.713 29.9143 113.55 31.6404 111.668C32.7943 110.408 33.0851 108.703 32.5832 107.205L39.8701 96.896L38.803 95.9701ZM16.4171 110.792H9.3812C9.3812 100.693 17.7891 92.4928 28.1436 92.4928C30.8712 92.4928 33.4651 93.0623 35.8057 94.0847L29.2623 99.4055L28.1436 99.3551C21.6729 99.3551 16.4171 104.479 16.4171 110.792ZM46.906 110.792H39.8701C39.8701 108.816 39.3565 106.958 38.4512 105.337L42.5062 99.0213C45.2502 102.205 46.906 106.311 46.906 110.792Z" fill="currentColor"/>
<path fill-rule="evenodd" clip-rule="evenodd" d="M237.043 181.548H293.33V231.871H237.043V181.548ZM288.639 227.296V192.985H241.733V227.296H288.639ZM275.846 203.325L266.129 211.511C264.546 211.195 262.844 211.666 261.687 212.924C259.963 214.809 260.127 217.701 262.06 219.384C263.99 221.068 266.957 220.905 268.683 219.023C269.837 217.762 270.128 216.058 269.626 214.56L276.913 204.251L275.846 203.325ZM253.46 218.146H246.424C246.424 208.047 254.832 199.847 265.186 199.847C267.914 199.847 270.508 200.417 272.849 201.439L266.305 206.76L265.186 206.71C258.716 206.71 253.46 211.833 253.46 218.146ZM283.949 218.146H276.913C276.913 216.17 276.399 214.313 275.494 212.691L279.549 206.376C282.293 209.56 283.949 213.666 283.949 218.146Z" fill="currentColor"/>
<path fill-rule="evenodd" clip-rule="evenodd" d="M174.222 0.387207H118.94V38.1291H174.222V0.387207ZM143.472 29.7404H143.475L161.741 11.5035L158.176 7.94317L143.475 22.6273L135.069 14.2335L131.504 17.7888L143.472 29.7404Z" fill="currentColor"/>
<path d="M150.769 38.1289H142.393V46.516H150.769V38.1289Z" fill="currentColor"/>
<path d="M136.53 46.5161V51.5483H157.47V46.5161H136.53Z" fill="currentColor"/>
<path fill-rule="evenodd" clip-rule="evenodd" d="M174.222 261.226H118.94V298.968H174.222V261.226ZM143.472 290.579H143.475L161.741 272.342L158.176 268.782L143.475 283.466L135.069 275.072L131.504 278.628L143.472 290.579Z" fill="currentColor"/>
<path d="M150.769 298.968H142.393V307.355H150.769V298.968Z" fill="currentColor"/>
<path d="M136.53 307.355V312.387H157.47V307.355H136.53Z" fill="currentColor"/>
<path d="M145.953 95.1614V73.355" stroke="currentColor" stroke-width="1.5" stroke-dasharray="3 3"/>
<path d="M145.953 242.774V220.968" stroke="currentColor" stroke-width="1.5" stroke-dasharray="3 3"/>
<path d="M200.699 125.253L219.301 113.914" stroke="currentColor" stroke-width="1.5" stroke-dasharray="3 3"/>
<path d="M73.3787 197.788L90.9682 186.884" stroke="currentColor" stroke-width="1.5" stroke-dasharray="3 3"/>
<path d="M219.172 197.209L203.224 187.964" stroke="currentColor" stroke-width="1.5" stroke-dasharray="3 3"/>
<path d="M90.9297 125.219L75.0649 115.832" stroke="currentColor" stroke-width="1.5" stroke-dasharray="3 3"/>
<path d="M145.744 220.339C180.091 220.339 207.936 192.458 207.936 158.065C207.936 123.672 180.091 95.7905 145.744 95.7905C111.396 95.7905 83.5513 123.672 83.5513 158.065C83.5513 192.458 111.396 220.339 145.744 220.339Z" stroke="currentColor" stroke-width="1.5" stroke-dasharray="2 2"/>
<path d="M169.527 123.678L163.391 125.356L153.062 128.141L146.353 129.971L138.464 132.146L115.136 138.44L111.402 153.163L120.969 162.737L128.211 170.023L135.072 163.081L135.033 154.27L148.64 140.652L151.27 143.246L150.203 150.532L154.091 154.422L161.371 153.354L163.962 155.986L150.355 169.565L141.513 169.527L134.652 176.393L140.217 182.001L150.66 192.452L165.449 188.866L167.278 182.001L169.49 173.838L174.292 155.872L176.427 147.976L180.085 134.358L169.527 123.678Z" fill="currentColor"/>
</g>
</svg>
