<svg xmlns="http://www.w3.org/2000/svg" xmlns:xlink="http://www.w3.org/1999/xlink" width="1080" zoomAndPan="magnify" viewBox="0 0 810 809.999993" height="1080" preserveAspectRatio="xMidYMid meet" version="1.0"><defs><clipPath id="26a28422e5"><path d="M 65.890625 506.578125 L 219.601562 506.578125 L 219.601562 638.578125 L 65.890625 638.578125 Z M 65.890625 506.578125 " clip-rule="nonzero"/></clipPath><clipPath id="35e5ff6e55"><path d="M 219.601562 572.625 L 181.171875 638.671875 L 104.316406 638.671875 L 65.890625 572.625 L 104.316406 506.578125 L 181.171875 506.578125 Z M 219.601562 572.625 " clip-rule="nonzero"/></clipPath><clipPath id="48238cdfdc"><path d="M 192.277344 440.527344 L 345.984375 440.527344 L 345.984375 572.527344 L 192.277344 572.527344 Z M 192.277344 440.527344 " clip-rule="nonzero"/></clipPath><clipPath id="599f41ee58"><path d="M 345.984375 506.574219 L 307.558594 572.621094 L 230.703125 572.621094 L 192.277344 506.574219 L 230.703125 440.527344 L 307.558594 440.527344 Z M 345.984375 506.574219 " clip-rule="nonzero"/></clipPath><clipPath id="11f6903adb"><path d="M 192.277344 580.859375 L 345.984375 580.859375 L 345.984375 712.859375 L 192.277344 712.859375 Z M 192.277344 580.859375 " clip-rule="nonzero"/></clipPath><clipPath id="3f9299a4cc"><path d="M 345.984375 646.90625 L 307.558594 712.953125 L 230.703125 712.953125 L 192.277344 646.90625 L 230.703125 580.859375 L 307.558594 580.859375 Z M 345.984375 646.90625 " clip-rule="nonzero"/></clipPath><clipPath id="b0030b4372"><path d="M 317.734375 506.578125 L 471.441406 506.578125 L 471.441406 638.578125 L 317.734375 638.578125 Z M 317.734375 506.578125 " clip-rule="nonzero"/></clipPath><clipPath id="56438d2814"><path d="M 471.441406 572.625 L 433.015625 638.671875 L 356.160156 638.671875 L 317.734375 572.625 L 356.160156 506.578125 L 433.015625 506.578125 Z M 471.441406 572.625 " clip-rule="nonzero"/></clipPath><clipPath id="a71a61fd00"><path d="M 444.207031 440.527344 L 597.917969 440.527344 L 597.917969 572.527344 L 444.207031 572.527344 Z M 444.207031 440.527344 " clip-rule="nonzero"/></clipPath><clipPath id="01e472606d"><path d="M 597.917969 506.574219 L 559.488281 572.621094 L 482.636719 572.621094 L 444.207031 506.574219 L 482.636719 440.527344 L 559.488281 440.527344 Z M 597.917969 506.574219 " clip-rule="nonzero"/></clipPath><clipPath id="b0db711f30"><path d="M 569.703125 506.578125 L 723.410156 506.578125 L 723.410156 638.578125 L 569.703125 638.578125 Z M 569.703125 506.578125 " clip-rule="nonzero"/></clipPath><clipPath id="f86c65b63b"><path d="M 723.410156 572.625 L 684.984375 638.671875 L 608.128906 638.671875 L 569.703125 572.625 L 608.128906 506.578125 L 684.984375 506.578125 Z M 723.410156 572.625 " clip-rule="nonzero"/></clipPath><clipPath id="44045710fe"><path d="M 569.703125 365.109375 L 723.410156 365.109375 L 723.410156 497.109375 L 569.703125 497.109375 Z M 569.703125 365.109375 " clip-rule="nonzero"/></clipPath><clipPath id="270ec8cb73"><path d="M 723.410156 431.15625 L 684.984375 497.203125 L 608.128906 497.203125 L 569.703125 431.15625 L 608.128906 365.109375 L 684.984375 365.109375 Z M 723.410156 431.15625 " clip-rule="nonzero"/></clipPath><clipPath id="332c53c400"><path d="M 444.207031 299.058594 L 597.917969 299.058594 L 597.917969 431.058594 L 444.207031 431.058594 Z M 444.207031 299.058594 " clip-rule="nonzero"/></clipPath><clipPath id="cbe479d1f8"><path d="M 597.917969 365.105469 L 559.488281 431.152344 L 482.636719 431.152344 L 444.207031 365.105469 L 482.636719 299.058594 L 559.488281 299.058594 Z M 597.917969 365.105469 " clip-rule="nonzero"/></clipPath><clipPath id="c2bb835a80"><path d="M 317.734375 365.109375 L 471.441406 365.109375 L 471.441406 497.109375 L 317.734375 497.109375 Z M 317.734375 365.109375 " clip-rule="nonzero"/></clipPath><clipPath id="2857b9a23a"><path d="M 471.441406 431.15625 L 433.015625 497.203125 L 356.160156 497.203125 L 317.734375 431.15625 L 356.160156 365.109375 L 433.015625 365.109375 Z M 471.441406 431.15625 " clip-rule="nonzero"/></clipPath><clipPath id="30f88f641b"><path d="M 569.703125 224.007812 L 723.410156 224.007812 L 723.410156 356.007812 L 569.703125 356.007812 Z M 569.703125 224.007812 " clip-rule="nonzero"/></clipPath><clipPath id="0a9fc1a777"><path d="M 723.410156 290.054688 L 684.984375 356.101562 L 608.128906 356.101562 L 569.703125 290.054688 L 608.128906 224.007812 L 684.984375 224.007812 Z M 723.410156 290.054688 " clip-rule="nonzero"/></clipPath><clipPath id="6dfc0f1cd5"><path d="M 444.207031 157.957031 L 597.917969 157.957031 L 597.917969 289.957031 L 444.207031 289.957031 Z M 444.207031 157.957031 " clip-rule="nonzero"/></clipPath><clipPath id="7be4ef2eac"><path d="M 597.917969 224.003906 L 559.488281 290.050781 L 482.636719 290.050781 L 444.207031 224.003906 L 482.636719 157.957031 L 559.488281 157.957031 Z M 597.917969 224.003906 " clip-rule="nonzero"/></clipPath><clipPath id="1162f2aa90"><path d="M 569.703125 82.902344 L 723.410156 82.902344 L 723.410156 214.902344 L 569.703125 214.902344 Z M 569.703125 82.902344 " clip-rule="nonzero"/></clipPath><clipPath id="e0a408b02c"><path d="M 723.410156 148.949219 L 684.984375 214.996094 L 608.128906 214.996094 L 569.703125 148.949219 L 608.128906 82.902344 L 684.984375 82.902344 Z M 723.410156 148.949219 " clip-rule="nonzero"/></clipPath></defs><g clip-path="url(#26a28422e5)"><g clip-path="url(#35e5ff6e55)"><path stroke-linecap="butt" transform="matrix(0.75, 0, 0, 0.75, 65.890935, 506.576899)" fill="none" stroke-linejoin="miter" d="M 204.947514 88.06414 L 153.707928 176.126644 L 51.233965 176.126644 L -0.00041278 88.06414 L 51.233965 0.00163531 L 153.707928 0.00163531 Z M 204.947514 88.06414 " stroke="#00a8f8" stroke-width="3" stroke-opacity="0.2" stroke-miterlimit="4"/></g></g><g clip-path="url(#48238cdfdc)"><g clip-path="url(#599f41ee58)"><path stroke-linecap="butt" transform="matrix(0.75, 0, 0, 0.75, 192.276702, 440.52571)" fill="none" stroke-linejoin="miter" d="M 204.943575 88.064683 L 153.709197 176.127187 L 51.235233 176.127187 L 0.000855898 88.064683 L 51.235233 0.00217855 L 153.709197 0.00217855 Z M 204.943575 88.064683 " stroke="#00a8f8" stroke-width="3" stroke-opacity="0.2" stroke-miterlimit="4"/></g></g><g clip-path="url(#11f6903adb)"><g clip-path="url(#3f9299a4cc)"><path stroke-linecap="butt" transform="matrix(0.75, 0, 0, 0.75, 192.276702, 580.860927)" fill="none" stroke-linejoin="miter" d="M 204.943575 88.060435 L 153.709197 176.12294 L 51.235233 176.12294 L 0.000855898 88.060435 L 51.235233 -0.00206904 L 153.709197 -0.00206904 Z M 204.943575 88.060435 " stroke="#00a8f8" stroke-width="3" stroke-opacity="0.2" stroke-miterlimit="4"/></g></g><g clip-path="url(#b0030b4372)"><g clip-path="url(#56438d2814)"><path stroke-linecap="butt" transform="matrix(0.75, 0, 0, 0.75, 317.732479, 506.576899)" fill="none" stroke-linejoin="miter" d="M 204.945247 88.06414 L 153.710869 176.126644 L 51.236906 176.126644 L 0.00252838 88.06414 L 51.236906 0.00163531 L 153.710869 0.00163531 Z M 204.945247 88.06414 " stroke="#00a8f8" stroke-width="3" stroke-opacity="0.2" stroke-miterlimit="4"/></g></g><g clip-path="url(#a71a61fd00)"><g clip-path="url(#01e472606d)"><path stroke-linecap="butt" transform="matrix(0.75, 0, 0, 0.75, 444.207773, 440.52571)" fill="none" stroke-linejoin="miter" d="M 204.946938 88.064683 L 153.707352 176.127187 L 51.238597 176.127187 L -0.000989203 88.064683 L 51.238597 0.00217855 L 153.707352 0.00217855 Z M 204.946938 88.064683 " stroke="#00a8f8" stroke-width="3" stroke-opacity="0.2" stroke-miterlimit="4"/></g></g><g clip-path="url(#b0db711f30)"><g clip-path="url(#f86c65b63b)"><path stroke-linecap="butt" transform="matrix(0.75, 0, 0, 0.75, 569.701607, 506.576899)" fill="none" stroke-linejoin="miter" d="M 204.944743 88.06414 L 153.710365 176.126644 L 51.236402 176.126644 L 0.00202421 88.06414 L 51.236402 0.00163531 L 153.710365 0.00163531 Z M 204.944743 88.06414 " stroke="#00a8f8" stroke-width="3" stroke-opacity="0.2" stroke-miterlimit="4"/></g></g><g clip-path="url(#44045710fe)"><g clip-path="url(#270ec8cb73)"><path stroke-linecap="butt" transform="matrix(0.75, 0, 0, 0.75, 569.701607, 365.108937)" fill="none" stroke-linejoin="miter" d="M 204.944743 88.063089 L 153.710365 176.125593 L 51.236402 176.125593 L 0.00202421 88.063089 L 51.236402 0.000584224 L 153.710365 0.000584224 Z M 204.944743 88.063089 " stroke="#00a8f8" stroke-width="3" stroke-opacity="0.2" stroke-miterlimit="4"/></g></g><g clip-path="url(#332c53c400)"><g clip-path="url(#cbe479d1f8)"><path stroke-linecap="butt" transform="matrix(0.75, 0, 0, 0.75, 444.207773, 299.057758)" fill="none" stroke-linejoin="miter" d="M 204.946938 88.063619 L 153.707352 176.126124 L 51.238597 176.126124 L -0.000989203 88.063619 L 51.238597 0.00111466 L 153.707352 0.00111466 Z M 204.946938 88.063619 " stroke="#00a8f8" stroke-width="3" stroke-opacity="0.2" stroke-miterlimit="4"/></g></g><g clip-path="url(#c2bb835a80)"><g clip-path="url(#2857b9a23a)"><path stroke-linecap="butt" transform="matrix(0.75, 0, 0, 0.75, 317.732479, 365.108937)" fill="none" stroke-linejoin="miter" d="M 204.945247 88.063089 L 153.710869 176.125593 L 51.236906 176.125593 L 0.00252838 88.063089 L 51.236906 0.000584224 L 153.710869 0.000584224 Z M 204.945247 88.063089 " stroke="#00a8f8" stroke-width="3" stroke-opacity="0.2" stroke-miterlimit="4"/></g></g><g clip-path="url(#30f88f641b)"><g clip-path="url(#0a9fc1a777)"><path stroke-linecap="butt" transform="matrix(0.75, 0, 0, 0.75, 569.701607, 224.006596)" fill="none" stroke-linejoin="miter" d="M 204.944743 88.064127 L 153.710365 176.126631 L 51.236402 176.126631 L 0.00202421 88.064127 L 51.236402 0.00162209 L 153.710365 0.00162209 Z M 204.944743 88.064127 " stroke="#00a8f8" stroke-width="3" stroke-opacity="0.2" stroke-miterlimit="4"/></g></g><g clip-path="url(#6dfc0f1cd5)"><g clip-path="url(#7be4ef2eac)"><path stroke-linecap="butt" transform="matrix(0.75, 0, 0, 0.75, 444.207773, 157.955402)" fill="none" stroke-linejoin="miter" d="M 204.946938 88.064676 L 153.707352 176.127181 L 51.238597 176.127181 L -0.000989203 88.064676 L 51.238597 0.00217173 L 153.707352 0.00217173 Z M 204.946938 88.064676 " stroke="#00a8f8" stroke-width="3" stroke-opacity="0.2" stroke-miterlimit="4"/></g></g><g clip-path="url(#1162f2aa90)"><g clip-path="url(#e0a408b02c)"><path stroke-linecap="butt" transform="matrix(0.75, 0, 0, 0.75, 569.701607, 82.904217)" fill="none" stroke-linejoin="miter" d="M 204.944743 88.060007 L 153.710365 176.122512 L 51.236402 176.122512 L 0.00202421 88.060007 L 51.236402 -0.00249717 L 153.710365 -0.00249717 Z M 204.944743 88.060007 " stroke="#00a8f8" stroke-width="3" stroke-opacity="0.2" stroke-miterlimit="4"/></g></g></svg>