<svg xmlns="http://www.w3.org/2000/svg" xmlns:xlink="http://www.w3.org/1999/xlink" width="1366" zoomAndPan="magnify" viewBox="0 0 1024.5 576" height="768" preserveAspectRatio="xMidYMid meet" version="1.0"><defs><clipPath id="8ff184258b"><path d="M 488.914062 318.980469 L 606.59375 318.980469 L 606.59375 455.917969 L 488.914062 455.917969 Z M 488.914062 318.980469 " clip-rule="nonzero"/></clipPath><clipPath id="ea55c3d400"><path d="M 547.753906 318.980469 L 606.59375 353.214844 L 606.59375 421.683594 L 547.753906 455.917969 L 488.914062 421.683594 L 488.914062 353.214844 Z M 547.753906 318.980469 " clip-rule="nonzero"/></clipPath><clipPath id="e207ece479"><path d="M 617.847656 318.980469 L 735.527344 318.980469 L 735.527344 455.917969 L 617.847656 455.917969 Z M 617.847656 318.980469 " clip-rule="nonzero"/></clipPath><clipPath id="45bfebe376"><path d="M 676.6875 318.980469 L 735.527344 353.214844 L 735.527344 421.683594 L 676.6875 455.917969 L 617.847656 421.683594 L 617.847656 353.214844 Z M 676.6875 318.980469 " clip-rule="nonzero"/></clipPath><clipPath id="35641f2fc0"><path d="M 746.894531 318.980469 L 864.578125 318.980469 L 864.578125 455.917969 L 746.894531 455.917969 Z M 746.894531 318.980469 " clip-rule="nonzero"/></clipPath><clipPath id="fdff997e5f"><path d="M 805.734375 318.980469 L 864.578125 353.214844 L 864.578125 421.683594 L 805.734375 455.917969 L 746.894531 421.683594 L 746.894531 353.214844 Z M 805.734375 318.980469 " clip-rule="nonzero"/></clipPath><clipPath id="3286a887a9"><path d="M 682.679688 206.15625 L 800.363281 206.15625 L 800.363281 343.09375 L 682.679688 343.09375 Z M 682.679688 206.15625 " clip-rule="nonzero"/></clipPath><clipPath id="71a3c622f8"><path d="M 741.523438 206.15625 L 800.363281 240.390625 L 800.363281 308.859375 L 741.523438 343.09375 L 682.679688 308.859375 L 682.679688 240.390625 Z M 741.523438 206.15625 " clip-rule="nonzero"/></clipPath><clipPath id="837f255723"><path d="M 811.730469 206.15625 L 929.410156 206.15625 L 929.410156 343.09375 L 811.730469 343.09375 Z M 811.730469 206.15625 " clip-rule="nonzero"/></clipPath><clipPath id="9e1a17005b"><path d="M 870.570312 206.15625 L 929.410156 240.390625 L 929.410156 308.859375 L 870.570312 343.09375 L 811.730469 308.859375 L 811.730469 240.390625 Z M 870.570312 206.15625 " clip-rule="nonzero"/></clipPath><clipPath id="90fde95d11"><path d="M 746.894531 91.644531 L 864.578125 91.644531 L 864.578125 228.578125 L 746.894531 228.578125 Z M 746.894531 91.644531 " clip-rule="nonzero"/></clipPath><clipPath id="6abf0ede2e"><path d="M 805.734375 91.644531 L 864.578125 125.878906 L 864.578125 194.34375 L 805.734375 228.578125 L 746.894531 194.34375 L 746.894531 125.878906 Z M 805.734375 91.644531 " clip-rule="nonzero"/></clipPath><clipPath id="16c7fa63c2"><path d="M 875.945312 318.980469 L 993.625 318.980469 L 993.625 455.917969 L 875.945312 455.917969 Z M 875.945312 318.980469 " clip-rule="nonzero"/></clipPath><clipPath id="a2847f871a"><path d="M 934.785156 318.980469 L 993.625 353.214844 L 993.625 421.683594 L 934.785156 455.917969 L 875.945312 421.683594 L 875.945312 353.214844 Z M 934.785156 318.980469 " clip-rule="nonzero"/></clipPath><clipPath id="4541fe4744"><path d="M 876.578125 91.644531 L 994.257812 91.644531 L 994.257812 228.578125 L 876.578125 228.578125 Z M 876.578125 91.644531 " clip-rule="nonzero"/></clipPath><clipPath id="29ba2bc513"><path d="M 935.417969 91.644531 L 994.257812 125.878906 L 994.257812 194.34375 L 935.417969 228.578125 L 876.578125 194.34375 L 876.578125 125.878906 Z M 935.417969 91.644531 " clip-rule="nonzero"/></clipPath><clipPath id="03e738b9a9"><path d="M 77.949219 6.617188 L 195.628906 6.617188 L 195.628906 143.554688 L 77.949219 143.554688 Z M 77.949219 6.617188 " clip-rule="nonzero"/></clipPath><clipPath id="c121f305c8"><path d="M 136.789062 6.617188 L 195.628906 40.851562 L 195.628906 109.320312 L 136.789062 143.554688 L 77.949219 109.320312 L 77.949219 40.851562 Z M 136.789062 6.617188 " clip-rule="nonzero"/></clipPath><clipPath id="cd78587e38"><path d="M 206.085938 6.617188 L 323.765625 6.617188 L 323.765625 143.554688 L 206.085938 143.554688 Z M 206.085938 6.617188 " clip-rule="nonzero"/></clipPath><clipPath id="f393ccaaab"><path d="M 264.925781 6.617188 L 323.765625 40.851562 L 323.765625 109.320312 L 264.925781 143.554688 L 206.085938 109.320312 L 206.085938 40.851562 Z M 264.925781 6.617188 " clip-rule="nonzero"/></clipPath><clipPath id="8b2172a156"><path d="M 141.933594 118.828125 L 259.617188 118.828125 L 259.617188 255.765625 L 141.933594 255.765625 Z M 141.933594 118.828125 " clip-rule="nonzero"/></clipPath><clipPath id="07b0d4912b"><path d="M 200.773438 118.828125 L 259.617188 153.0625 L 259.617188 221.53125 L 200.773438 255.765625 L 141.933594 221.53125 L 141.933594 153.0625 Z M 200.773438 118.828125 " clip-rule="nonzero"/></clipPath><clipPath id="f3e70409b9"><path d="M 682.679688 430.34375 L 800.363281 430.34375 L 800.363281 567.28125 L 682.679688 567.28125 Z M 682.679688 430.34375 " clip-rule="nonzero"/></clipPath><clipPath id="0dddbe9a7b"><path d="M 741.523438 430.34375 L 800.363281 464.578125 L 800.363281 533.046875 L 741.523438 567.28125 L 682.679688 533.046875 L 682.679688 464.578125 Z M 741.523438 430.34375 " clip-rule="nonzero"/></clipPath><clipPath id="28c87e6950"><path d="M 12.191406 118.828125 L 129.871094 118.828125 L 129.871094 255.765625 L 12.191406 255.765625 Z M 12.191406 118.828125 " clip-rule="nonzero"/></clipPath><clipPath id="b252b73dcd"><path d="M 71.03125 118.828125 L 129.871094 153.0625 L 129.871094 221.53125 L 71.03125 255.765625 L 12.191406 221.53125 L 12.191406 153.0625 Z M 71.03125 118.828125 " clip-rule="nonzero"/></clipPath><clipPath id="08367d8405"><path d="M 77.949219 234.058594 L 195.628906 234.058594 L 195.628906 370.996094 L 77.949219 370.996094 Z M 77.949219 234.058594 " clip-rule="nonzero"/></clipPath><clipPath id="3e9d0cc1e3"><path d="M 136.789062 234.058594 L 195.628906 268.292969 L 195.628906 336.761719 L 136.789062 370.996094 L 77.949219 336.761719 L 77.949219 268.292969 Z M 136.789062 234.058594 " clip-rule="nonzero"/></clipPath><clipPath id="83858669f6"><path d="M 553.746094 430.34375 L 671.429688 430.34375 L 671.429688 567.28125 L 553.746094 567.28125 Z M 553.746094 430.34375 " clip-rule="nonzero"/></clipPath><clipPath id="730d52ac41"><path d="M 612.585938 430.34375 L 671.429688 464.578125 L 671.429688 533.046875 L 612.585938 567.28125 L 553.746094 533.046875 L 553.746094 464.578125 Z M 612.585938 430.34375 " clip-rule="nonzero"/></clipPath></defs><g clip-path="url(#8ff184258b)"><g clip-path="url(#ea55c3d400)"><path stroke-linecap="butt" transform="matrix(0, -0.749634, 0.749634, 0, 488.913841, 455.917882)" fill="none" stroke-linejoin="miter" d="M 182.672334 78.491713 L 137.004221 156.983129 L 45.667996 156.983129 L -0.000115907 78.491713 L 45.667996 0.000295922 L 137.004221 0.000295922 Z M 182.672334 78.491713 " stroke="#00a8f8" stroke-width="1.5" stroke-opacity="0.4" stroke-miterlimit="4"/></g></g><g clip-path="url(#e207ece479)"><g clip-path="url(#45bfebe376)"><path stroke-linecap="butt" transform="matrix(0, -0.749634, 0.749634, 0, 617.84767, 455.917882)" fill="none" stroke-linejoin="miter" d="M 182.672334 78.491398 L 137.004221 156.982815 L 45.667996 156.982815 L -0.000115907 78.491398 L 45.667996 -0.0000184031 L 137.004221 -0.0000184031 Z M 182.672334 78.491398 " stroke="#00a8f8" stroke-width="1.5" stroke-opacity="0.4" stroke-miterlimit="4"/></g></g><g clip-path="url(#35641f2fc0)"><g clip-path="url(#fdff997e5f)"><path stroke-linecap="butt" transform="matrix(0, -0.749634, 0.749634, 0, 746.895948, 455.917882)" fill="none" stroke-linejoin="miter" d="M 182.672334 78.489527 L 137.004221 156.986155 L 45.667996 156.986155 L -0.000115907 78.489527 L 45.667996 -0.00188934 L 137.004221 -0.00188934 Z M 182.672334 78.489527 " stroke="#00a8f8" stroke-width="1.5" stroke-opacity="0.4" stroke-miterlimit="4"/></g></g><g clip-path="url(#3286a887a9)"><g clip-path="url(#71a3c622f8)"><path stroke-linecap="butt" transform="matrix(0, -0.749634, 0.749634, 0, 682.681426, 343.094836)" fill="none" stroke-linejoin="miter" d="M 182.673899 78.494309 L 137.005786 156.985726 L 45.669561 156.985726 L 0.00144905 78.494309 L 45.669561 -0.00231871 L 137.005786 -0.00231871 Z M 182.673899 78.494309 " stroke="#00a8f8" stroke-width="1.5" stroke-opacity="0.4" stroke-miterlimit="4"/></g></g><g clip-path="url(#837f255723)"><g clip-path="url(#9e1a17005b)"><path stroke-linecap="butt" transform="matrix(0, -0.749634, 0.749634, 0, 811.729703, 343.094836)" fill="none" stroke-linejoin="miter" d="M 182.673899 78.492438 L 137.005786 156.983855 L 45.669561 156.983855 L 0.00144905 78.492438 L 45.669561 0.00102123 L 137.005786 0.00102123 Z M 182.673899 78.492438 " stroke="#00a8f8" stroke-width="1.5" stroke-opacity="0.4" stroke-miterlimit="4"/></g></g><g clip-path="url(#90fde95d11)"><g clip-path="url(#6abf0ede2e)"><path stroke-linecap="butt" transform="matrix(0, -0.749634, 0.749634, 0, 746.895948, 228.579865)" fill="none" stroke-linejoin="miter" d="M 182.66956 78.489527 L 137.001448 156.986155 L 45.670434 156.986155 L 0.00232147 78.489527 L 45.670434 -0.00188934 L 137.001448 -0.00188934 Z M 182.66956 78.489527 " stroke="#00a8f8" stroke-width="1.5" stroke-opacity="0.4" stroke-miterlimit="4"/></g></g><g clip-path="url(#16c7fa63c2)"><g clip-path="url(#a2847f871a)"><path stroke-linecap="butt" transform="matrix(0, -0.749634, 0.749634, 0, 875.944177, 455.917882)" fill="none" stroke-linejoin="miter" d="M 182.672334 78.492931 L 137.004221 156.984348 L 45.667996 156.984348 L -0.000115907 78.492931 L 45.667996 0.0015146 L 137.004221 0.0015146 Z M 182.672334 78.492931 " stroke="#00a8f8" stroke-width="1.5" stroke-opacity="0.4" stroke-miterlimit="4"/></g></g><g clip-path="url(#4541fe4744)"><g clip-path="url(#29ba2bc513)"><path stroke-linecap="butt" transform="matrix(0, -0.749634, 0.749634, 0, 876.579435, 228.579865)" fill="none" stroke-linejoin="miter" d="M 182.66956 78.489669 L 137.001448 156.981086 L 45.670434 156.981086 L 0.00232147 78.489669 L 45.670434 -0.00174758 L 137.001448 -0.00174758 Z M 182.66956 78.489669 " stroke="#00a8f8" stroke-width="1.5" stroke-opacity="0.4" stroke-miterlimit="4"/></g></g><g clip-path="url(#03e738b9a9)"><g clip-path="url(#c121f305c8)"><path stroke-linecap="butt" transform="matrix(0, -0.749634, 0.749634, 0, 77.947469, 143.555222)" fill="none" stroke-linejoin="miter" d="M 182.673163 78.493751 L 137.00505 156.985168 L 45.668825 156.985168 L 0.000713117 78.493751 L 45.668825 0.00233462 L 137.00505 0.00233462 Z M 182.673163 78.493751 " stroke="#00a8f8" stroke-width="1.5" stroke-opacity="0.4" stroke-miterlimit="4"/></g></g><g clip-path="url(#cd78587e38)"><g clip-path="url(#f393ccaaab)"><path stroke-linecap="butt" transform="matrix(0, -0.749634, 0.749634, 0, 206.087038, 143.555222)" fill="none" stroke-linejoin="miter" d="M 182.673163 78.489948 L 137.00505 156.981365 L 45.668825 156.981365 L 0.000713117 78.489948 L 45.668825 -0.00146869 L 137.00505 -0.00146869 Z M 182.673163 78.489948 " stroke="#00a8f8" stroke-width="1.5" stroke-opacity="0.4" stroke-miterlimit="4"/></g></g><g clip-path="url(#8b2172a156)"><g clip-path="url(#07b0d4912b)"><path stroke-linecap="butt" transform="matrix(0, -0.749634, 0.749634, 0, 141.935224, 255.764131)" fill="none" stroke-linejoin="miter" d="M 182.670457 78.489242 L 137.002345 156.985869 L 45.66612 156.985869 L -0.0019924 78.489242 L 45.66612 -0.00217526 L 137.002345 -0.00217526 Z M 182.670457 78.489242 " stroke="#00a8f8" stroke-width="1.5" stroke-opacity="0.4" stroke-miterlimit="4"/></g></g><g clip-path="url(#f3e70409b9)"><g clip-path="url(#0dddbe9a7b)"><path stroke-linecap="butt" transform="matrix(0, -0.749634, 0.749634, 0, 682.681426, 567.280695)" fill="none" stroke-linejoin="miter" d="M 182.67171 78.494309 L 137.003597 156.985726 L 45.667373 156.985726 L -0.000739849 78.494309 L 45.667373 -0.00231871 L 137.003597 -0.00231871 Z M 182.67171 78.494309 " stroke="#00a8f8" stroke-width="1.5" stroke-opacity="0.4" stroke-miterlimit="4"/></g></g><g clip-path="url(#28c87e6950)"><g clip-path="url(#b252b73dcd)"><path stroke-linecap="butt" transform="matrix(0, -0.749634, 0.749634, 0, 12.192535, 255.764131)" fill="none" stroke-linejoin="miter" d="M 182.670457 78.489911 L 137.002345 156.981327 L 45.66612 156.981327 L -0.0019924 78.489911 L 45.66612 -0.00150607 L 137.002345 -0.00150607 Z M 182.670457 78.489911 " stroke="#00a8f8" stroke-width="1.5" stroke-opacity="0.4" stroke-miterlimit="4"/></g></g><g clip-path="url(#08367d8405)"><g clip-path="url(#3e9d0cc1e3)"><path stroke-linecap="butt" transform="matrix(0, -0.749634, 0.749634, 0, 77.947469, 370.99534)" fill="none" stroke-linejoin="miter" d="M 182.671444 78.493751 L 137.003332 156.985168 L 45.667107 156.985168 L -0.00100542 78.493751 L 45.667107 0.00233462 L 137.003332 0.00233462 Z M 182.671444 78.493751 " stroke="#00a8f8" stroke-width="1.5" stroke-opacity="0.4" stroke-miterlimit="4"/></g></g><g clip-path="url(#83858669f6)"><g clip-path="url(#730d52ac41)"><path stroke-linecap="butt" transform="matrix(0, -0.749634, 0.749634, 0, 553.747644, 567.280695)" fill="none" stroke-linejoin="miter" d="M 182.67171 78.489348 L 137.003597 156.985976 L 45.667373 156.985976 L -0.000739849 78.489348 L 45.667373 -0.00206839 L 137.003597 -0.00206839 Z M 182.67171 78.489348 " stroke="#00a8f8" stroke-width="1.5" stroke-opacity="0.4" stroke-miterlimit="4"/></g></g></svg>