<svg width="142" height="71" viewBox="0 0 142 100" fill="none" xmlns="http://www.w3.org/2000/svg">
<g clip-path="url(#clip0_7036_18399)">
<path d="M60.6602 30.9898L71.1742 19.0876C78.1668 14.3854 92.5727 26.6756 89.4728 33.1983L79.085 46.6341C81.4072 42.8066 69.5142 28.5178 60.661 30.9898H60.6602Z" fill="white"/>
<path d="M50.2646 42.9361L59.3922 32.4622C66.3848 27.76 82.689 40.7192 78.3221 47.5956L69.3468 59.2302C70.2884 56.5517 57.2506 41.1482 50.2655 42.9361H50.2646Z" fill="white"/>
<path d="M33.0693 54.4066L46.7402 43.6208C53.7328 38.9186 73.1268 56.0481 68.76 62.9245L61.0741 79.4611C62.1997 68.4813 40.6607 52.2716 33.0693 54.4066Z" fill="white"/>
<path d="M90.0732 75.8225L111.077 49.2803L126.461 58.1636L103.67 86.9612L90.0732 75.8225Z" fill="#8162AA"/>
<path d="M77.2373 65.578L96.4173 40.96L110.755 49.6903L90.0083 75.9474L77.2373 65.578Z" fill="#6389C6"/>
<path d="M30.4893 27.132L44.5816 9.73242L58.2173 17.5722L42.6983 37.1544L30.4893 27.132Z" fill="#98CA3F"/>
<path d="M20.5117 18.9239L33.0871 3.12402L44.3596 9.60487L30.4897 27.1324L20.5117 18.9239Z" fill="#CBDD72"/>
<path d="M60.5079 79.8917C62.9184 77.1498 58.5622 69.3793 50.778 62.5359C42.9938 55.6925 34.7293 52.3676 32.3188 55.1095C29.9082 57.8515 34.2644 65.6219 42.0487 72.4653C49.8329 79.3087 58.0973 82.6336 60.5079 79.8917Z" fill="#F8C519"/>
<path d="M138.577 22.5738C140.939 19.8713 138.972 14.2881 134.183 10.1033C129.394 5.91848 123.598 4.7168 121.236 7.41926C118.874 10.1217 120.842 15.705 125.631 19.8897C130.419 24.0745 136.216 25.2762 138.577 22.5738Z" fill="#F07525"/>
<path d="M15.5918 68.1712C17.2891 66.229 15.875 62.2162 12.4332 59.2084C8.99136 56.2007 4.82528 55.3369 3.12796 57.2791C1.43064 59.2214 2.84482 63.2342 6.28662 66.2419C9.72842 69.2497 13.8945 70.1135 15.5918 68.1712Z" fill="#E8282B"/>
<path d="M141.342 16.1018C140.377 13.3614 138.4 10.5885 135.777 8.29632C133.154 6.00336 130.141 4.41534 127.297 3.82579C123.963 3.13422 121.168 3.85004 119.428 5.84029C117.687 7.83054 117.353 10.6963 118.484 13.9075C118.829 14.8867 119.305 15.8693 119.892 16.8335L91.6502 27.8183C91.5733 27.6218 91.4905 27.4244 91.401 27.2263C90.2587 24.6925 88.1523 22.0892 85.4688 19.8958C82.7978 17.7124 79.6862 16.2088 76.7075 15.6619C73.3199 15.0398 70.4842 15.7773 68.9263 17.6839L68.9363 17.6923L58.199 30.1548L53.7929 27.0415L61.8467 16.8786L32.4914 0L17.1464 19.2803L43.0648 40.5768L50.7925 30.8254L55.0364 33.8242L49.2847 40.4999C47.5738 40.5551 46.061 41.051 44.8343 42.011L44.8192 41.9917L33.8937 50.6719L14.8768 58.2047C14.6017 57.9288 14.3157 57.6587 14.018 57.3978C12.0462 55.6743 9.7716 54.4784 7.6141 54.0311C5.00587 53.49 2.70789 54.0971 1.31053 55.6968C-0.0876578 57.2966 -0.382014 59.6548 0.503563 62.1668C1.23611 64.2449 2.72461 66.3388 4.6973 68.0623C6.66915 69.7858 8.94372 70.9816 11.1012 71.429C12.348 71.6874 13.523 71.6841 14.5632 71.4349C15.6997 71.1631 16.6747 70.5978 17.4048 69.7632C18.803 68.1635 19.0973 65.8053 18.2118 63.2932C18.0888 62.9429 17.9417 62.5925 17.7769 62.2438L29.261 57.6946C29.3747 59.2015 29.9417 61.0856 31.2579 63.432C33.2256 66.9426 36.4919 70.7951 40.4565 74.2806C44.4212 77.766 48.66 80.5131 52.393 82.0149C55.651 83.3262 57.9657 83.475 59.6047 83.0837C60.8716 82.7801 61.7355 82.1538 62.3192 81.4898C62.662 81.0993 62.9798 80.6151 63.2114 80.0188L70.9926 63.8702C71.5069 62.891 71.9133 61.5831 71.8364 59.9541L79.2012 50.4285L83.466 53.4415L73.8066 65.6481L104.043 90.3782L130.095 57.4621L95.8172 37.8339L86.4639 49.6542L82.1548 46.6094L91.3835 34.673L91.3643 34.6579C91.7556 34.0901 92.0324 33.4604 92.1955 32.7814L123.049 20.7805C123.372 21.0983 123.707 21.4102 124.053 21.7129C126.676 24.0059 129.688 25.5939 132.533 26.1835C134.152 26.5188 135.643 26.523 136.948 26.2111C138.332 25.8799 139.507 25.1934 140.402 24.169C142.142 22.1787 142.477 19.3129 141.345 16.1018H141.342ZM13.7722 66.5897C13.6325 66.7494 13.0672 66.9116 12.0788 66.7068C10.7408 66.4291 9.20714 65.5996 7.86999 64.4314C6.53284 63.2623 5.50594 61.8532 5.05187 60.5646C4.71653 59.6129 4.80183 59.0301 4.94148 58.8712C4.99333 58.8118 5.10622 58.7516 5.27765 58.7098C5.56448 58.6412 6.01688 58.6254 6.63487 58.7541C7.97285 59.0318 9.50651 59.8613 10.8437 61.0295C12.1808 62.1986 13.2077 63.6077 13.6618 64.8963C13.9971 65.8479 13.9118 66.4308 13.7722 66.5897ZM122.833 58.8637L103.301 83.5428L93.4298 75.4689L111.642 52.4547L122.834 58.8637H122.833ZM97.0206 44.0823L107.409 50.0313L89.696 72.4158L80.5316 64.9206L97.0214 44.0832L97.0206 44.0823ZM23.8764 18.5678L33.6822 6.24754L40.7325 10.3016L30.1265 23.704L23.8756 18.5678H23.8764ZM42.3331 33.7339L33.8536 26.7663L44.9597 12.7317L54.589 18.2676L42.3331 33.733V33.7339ZM58.6949 78.3046C58.5109 78.4559 57.1186 78.767 53.9325 77.4349C50.7515 76.1052 47.0963 73.6986 43.6393 70.6588C40.1823 67.6191 37.3282 64.3017 35.6013 61.318C33.8636 58.3143 34.0033 56.8935 34.1262 56.7079C34.158 56.6803 34.2291 56.6476 34.3445 56.6201C34.8646 56.4955 36.2712 56.4804 38.8911 57.5759C39.7064 57.9171 40.5535 58.3293 41.4207 58.8043C40.9591 60.726 42.9151 64.1889 46.291 67.1575C49.7463 70.1955 53.5253 71.6916 55.3257 70.8654C56.0541 71.8279 56.6913 72.7762 57.2223 73.6935C58.9516 76.6831 58.8212 78.1039 58.6941 78.3054L58.6949 78.3046ZM51.5509 60.0244C47.8263 56.8743 43.9102 54.394 40.4323 52.995C40.0292 52.8327 39.6412 52.6889 39.2666 52.5609L47.7101 45.8518L47.7268 45.871C48.5028 45.1987 50.044 45.1393 51.9557 45.708C54.303 46.4071 57.0316 47.9976 59.6758 50.2036L51.5509 60.0235V60.0244ZM60.1667 44.5147C58.3069 43.2243 56.478 42.2359 54.7345 41.5611L61.1175 34.152C61.5607 33.7882 62.7172 33.5624 64.4131 33.8735C65.5445 34.0809 66.7387 34.4923 67.9136 35.0685L60.1667 44.5138V44.5147ZM65.4199 29.1588L72.6735 20.7396L72.6626 20.7304C72.9302 20.4126 73.9897 20.0664 75.8345 20.4051C77.032 20.625 78.303 21.0849 79.5423 21.7322L71.2786 31.3974C69.3737 30.3053 67.3709 29.5343 65.4199 29.1588ZM136.766 20.9954C135.67 22.2506 131.406 21.7389 127.222 18.082C123.038 14.4251 121.961 10.2682 123.058 9.01382C123.268 8.77298 123.596 8.59653 124.018 8.49619C125.79 8.07221 129.222 8.97368 132.602 11.9273C136.785 15.5841 137.862 19.7411 136.766 20.9954Z" fill="#333333"/>
</g>
</svg>
