<?xml version="1.0" encoding="UTF-8" standalone="no"?><!DOCTYPE svg PUBLIC "-//W3C//DTD SVG 1.1//EN" "http://www.w3.org/Graphics/SVG/1.1/DTD/svg11.dtd"><svg width="71" height="71" viewBox="0 0 71 69" version="1.1" xmlns="http://www.w3.org/2000/svg" xmlns:xlink="http://www.w3.org/1999/xlink" xml:space="preserve" xmlns:serif="http://www.serif.com/" style="fill-rule:evenodd;clip-rule:evenodd;stroke-linejoin:round;stroke-miterlimit:2;"><g><path id="path10349" d="M64.789,15.264c-0.406,-1.299 -1.38,-2.355 -2.598,-3.004l-24.764,-11.854c-0.649,-0.325 -1.38,-0.406 -2.03,-0.406c-0.649,-0 -1.38,-0 -2.029,0.162l-24.764,11.936c-1.218,0.568 -2.111,1.623 -2.436,3.004l-6.089,26.712c-0.243,1.38 0.081,2.76 0.893,3.897l17.132,21.191c0.974,0.974 2.354,1.624 3.734,1.705l27.281,-0c1.461,0.162 2.842,-0.487 3.735,-1.705l17.131,-21.191c0.812,-1.137 1.137,-2.517 0.974,-3.897l-6.17,-26.55Z" style="fill:#0078d4;fill-rule:nonzero;"/><path id="path10351" d="M60.973,40.758c-0.081,0 -0.163,0 -0.163,-0.081c0,-0.081 -0.162,-0.081 -0.324,-0.081c-0.325,-0.081 -0.65,-0.081 -0.975,-0.081c-0.162,-0 -0.324,-0 -0.487,-0.082l-0.081,0c-0.893,-0.081 -1.867,-0.243 -2.76,-0.487c-0.244,-0.081 -0.488,-0.324 -0.569,-0.568c0.081,-0 0,-0 0,-0l-0.649,-0.162c0.324,-2.355 0.162,-4.791 -0.325,-7.145c-0.568,-2.355 -1.543,-4.628 -2.842,-6.658l0.487,-0.487l0,-0.081c0,-0.244 0.082,-0.569 0.244,-0.731c0.731,-0.65 1.461,-1.137 2.273,-1.624c0.163,-0.081 0.325,-0.162 0.487,-0.243c0.325,-0.163 0.569,-0.325 0.894,-0.488c0.081,-0.081 0.162,-0.081 0.243,-0.162c0.081,-0.081 0,-0.081 0,-0.162c0.731,-0.569 0.893,-1.543 0.325,-2.274c-0.244,-0.325 -0.731,-0.568 -1.137,-0.568c-0.406,-0 -0.812,0.162 -1.136,0.406l-0.082,0.081c-0.081,0.081 -0.162,0.162 -0.243,0.162c-0.244,0.244 -0.487,0.488 -0.65,0.731c-0.081,0.163 -0.243,0.244 -0.325,0.325c-0.568,0.649 -1.299,1.299 -2.029,1.786c-0.163,0.081 -0.325,0.163 -0.488,0.163c-0.081,-0 -0.243,-0 -0.324,-0.082l-0.081,0l-0.65,0.406c-0.65,-0.649 -1.38,-1.299 -2.03,-1.948c-3.004,-2.355 -6.739,-3.816 -10.555,-4.222l-0.081,-0.65l0,0.081c-0.243,-0.162 -0.325,-0.406 -0.406,-0.649c0,-0.893 0,-1.786 0.163,-2.761l-0,-0.081c-0,-0.162 0.081,-0.325 0.081,-0.487c0.081,-0.325 0.081,-0.65 0.162,-0.974l0,-0.487c0.081,-0.812 -0.568,-1.624 -1.38,-1.705c-0.487,-0.082 -0.974,0.162 -1.38,0.568c-0.325,0.325 -0.488,0.731 -0.488,1.137l0,0.405c0,0.325 0.082,0.65 0.163,0.975c0.081,0.162 0.081,0.325 0.081,0.487l0,0.081c0.162,0.893 0.162,1.786 0.162,2.761c-0.081,0.243 -0.162,0.487 -0.406,0.649l0,0.163l-0.081,0.649c-0.893,0.081 -1.786,0.244 -2.76,0.406c-3.816,0.812 -7.308,2.842 -9.987,5.683l-0.487,-0.324l-0.081,-0c-0.081,-0 -0.163,0.081 -0.325,0.081c-0.162,-0 -0.325,-0.081 -0.487,-0.162c-0.731,-0.569 -1.462,-1.218 -2.03,-1.868c-0.081,-0.162 -0.243,-0.243 -0.325,-0.325c-0.243,-0.243 -0.406,-0.487 -0.649,-0.73c-0.081,-0.082 -0.163,-0.082 -0.244,-0.163l-0.081,-0.081c-0.325,-0.244 -0.731,-0.406 -1.137,-0.406c-0.487,0 -0.893,0.162 -1.136,0.568c-0.487,0.731 -0.325,1.705 0.324,2.274c0.082,-0 0.082,0.081 0.082,0.081c-0,-0 0.162,0.162 0.243,0.162c0.244,0.163 0.569,0.325 0.893,0.488c0.163,0.081 0.325,0.162 0.487,0.243c0.812,0.487 1.624,0.974 2.274,1.624c0.162,0.162 0.325,0.487 0.243,0.731l0,-0.082l0.488,0.488c-0.082,0.162 -0.163,0.243 -0.244,0.406c-2.517,3.978 -3.572,8.687 -2.842,13.315l-0.649,0.162c-0,0.082 -0.081,0.082 -0.081,0.082c-0.082,0.243 -0.325,0.406 -0.569,0.568c-0.893,0.243 -1.786,0.406 -2.76,0.487c-0.163,0 -0.325,0 -0.487,0.081c-0.325,0 -0.65,0.081 -0.975,0.081c-0.081,0 -0.162,0.082 -0.325,0.082c-0.081,-0 -0.081,-0 -0.162,0.081c-0.893,0.162 -1.461,0.974 -1.299,1.867c0.162,0.731 0.893,1.218 1.624,1.137c0.162,-0 0.243,-0 0.406,-0.081c0.081,-0 0.081,-0 0.081,-0.081c0,-0.082 0.244,-0 0.325,-0c0.325,-0.082 0.649,-0.244 0.893,-0.325c0.162,-0.081 0.325,-0.163 0.487,-0.163l0.081,0c0.893,-0.324 1.705,-0.568 2.68,-0.73l0.081,-0c0.243,-0 0.487,0.081 0.649,0.243c0.081,0 0.081,0.081 0.081,0.081l0.731,-0.081c1.218,3.735 3.491,7.064 6.658,9.5c0.731,0.568 1.38,1.055 2.192,1.461l-0.406,0.568c0,0.082 0.081,0.082 0.081,0.082c0.163,0.243 0.163,0.568 0.082,0.812c-0.325,0.811 -0.812,1.623 -1.3,2.354l0,0.081c-0.081,0.163 -0.162,0.244 -0.324,0.406c-0.163,0.163 -0.325,0.487 -0.569,0.812c-0.081,0.081 -0.081,0.163 -0.162,0.244c-0,-0 -0,0.081 -0.081,0.081c-0.406,0.812 -0.081,1.786 0.649,2.192c0.163,0.081 0.406,0.162 0.569,0.162c0.649,0 1.218,-0.405 1.542,-0.974c0,0 0,-0.081 0.081,-0.081c0,-0.081 0.082,-0.162 0.163,-0.244c0.081,-0.324 0.243,-0.568 0.325,-0.893l0.162,-0.487c0.244,-0.893 0.65,-1.705 1.055,-2.517c0.163,-0.243 0.406,-0.406 0.65,-0.487c0.081,0 0.081,0 0.081,-0.081l0.325,-0.65c2.273,0.893 4.628,1.299 7.064,1.299c1.461,0 2.923,-0.162 4.384,-0.568c0.893,-0.162 1.786,-0.487 2.598,-0.731l0.325,0.569c0.081,-0 0.081,-0 0.081,0.081c0.244,0.081 0.487,0.243 0.65,0.487c0.406,0.812 0.812,1.624 1.055,2.517l0,0.081l0.163,0.487c0.081,0.325 0.162,0.65 0.324,0.893c0.081,0.082 0.081,0.163 0.163,0.244c-0,-0 -0,0.081 0.081,0.081c0.325,0.569 0.893,0.974 1.542,0.974c0.244,0 0.406,-0.081 0.65,-0.162c0.325,-0.162 0.65,-0.487 0.731,-0.893c0.081,-0.406 0.081,-0.812 -0.081,-1.218c-0,-0.081 -0.082,-0.081 -0.082,-0.081c0,-0.081 -0.081,-0.162 -0.162,-0.244c-0.162,-0.324 -0.325,-0.568 -0.568,-0.812c-0.082,-0.162 -0.163,-0.243 -0.325,-0.406l-0,-0.162c-0.568,-0.731 -0.974,-1.543 -1.299,-2.354c-0.081,-0.244 -0.081,-0.569 0.081,-0.812c-0,-0.082 0.081,-0.082 0.081,-0.082l-0.243,-0.649c4.14,-2.517 7.307,-6.414 8.768,-11.042l0.65,0.081c0.081,0 0.081,-0.081 0.081,-0.081c0.162,-0.163 0.406,-0.244 0.65,-0.244l0.081,0c0.893,0.163 1.786,0.406 2.598,0.731l0.081,-0c0.162,0.081 0.325,0.162 0.487,0.162c0.325,0.163 0.569,0.325 0.893,0.406c0.082,0 0.163,0.082 0.325,0.082c0.081,-0 0.081,-0 0.162,0.081c0.163,0.081 0.244,0.081 0.406,0.081c0.731,-0 1.381,-0.487 1.624,-1.137c-0.081,-0.893 -0.73,-1.542 -1.461,-1.705Zm-23.465,-2.517l-2.192,1.056l-2.192,-1.056l-0.568,-2.354l1.542,-1.949l2.436,0l1.543,1.949l-0.569,2.354Zm13.235,-5.277c0.406,1.705 0.487,3.41 0.324,5.115l-7.713,-2.192c-0.73,-0.163 -1.136,-0.893 -0.974,-1.624c0.081,-0.244 0.162,-0.406 0.325,-0.568l6.089,-5.522c0.893,1.462 1.543,3.086 1.949,4.791Zm-4.385,-7.795l-6.657,4.71c-0.569,0.324 -1.381,0.243 -1.787,-0.325c-0.162,-0.163 -0.243,-0.325 -0.243,-0.569l-0.487,-8.2c3.572,0.406 6.739,1.949 9.174,4.384Zm-14.695,-4.14l1.623,-0.325l-0.405,8.119c-0,0.731 -0.65,1.299 -1.381,1.299c-0.243,0 -0.406,-0.081 -0.649,-0.162l-6.739,-4.791c2.111,-2.029 4.709,-3.491 7.551,-4.14Zm-9.906,7.144l6.008,5.359c0.569,0.487 0.65,1.299 0.163,1.868c-0.163,0.243 -0.325,0.324 -0.65,0.406l-7.875,2.273c-0.244,-3.41 0.568,-6.901 2.354,-9.906Zm-1.38,13.722l8.038,-1.38c0.65,-0 1.299,0.406 1.38,1.055c0.081,0.244 0.081,0.568 -0.081,0.812l-3.085,7.47c-2.842,-1.868 -5.115,-4.709 -6.252,-7.957Zm18.431,10.068c-1.137,0.243 -2.274,0.406 -3.492,0.406c-1.705,-0 -3.491,-0.325 -5.115,-0.812l3.979,-7.226c0.406,-0.488 1.055,-0.65 1.623,-0.325c0.244,0.162 0.406,0.325 0.65,0.568l3.897,7.064c-0.487,0.081 -0.974,0.162 -1.542,0.325Zm9.905,-7.064c-1.218,1.949 -2.923,3.654 -4.872,4.871l-3.166,-7.632c-0.162,-0.649 0.162,-1.299 0.731,-1.542c0.243,-0.081 0.487,-0.163 0.73,-0.163l8.12,1.381c-0.406,1.136 -0.894,2.192 -1.543,3.085Z" style="fill:#fff;fill-rule:nonzero;"/></g></svg>
