<?xml version="1.0" encoding="UTF-8" standalone="no"?><!DOCTYPE svg PUBLIC "-//W3C//DTD SVG 1.1//EN" "http://www.w3.org/Graphics/SVG/1.1/DTD/svg11.dtd"><svg width="294" height="313" viewBox="0 0 294 313" version="1.1" xmlns="http://www.w3.org/2000/svg" xmlns:xlink="http://www.w3.org/1999/xlink" xml:space="preserve" xmlns:serif="http://www.serif.com/" style="fill-rule:evenodd;clip-rule:evenodd;"><g><path d="M276.438,80.642l-18.467,-6.333c-0.223,-0.077 -0.522,-0.115 -0.821,-0.115c-0.299,-0 -0.597,0.038 -0.82,0.115l-18.466,6.333c-0.452,0.153 -0.821,0.678 -0.821,1.16l0,26.383c0,0.481 0.31,1.116 0.685,1.417l18.732,14.69c0.19,0.148 0.435,0.224 0.685,0.224c0.25,0 0.5,-0.076 0.685,-0.224l18.733,-14.69c0.375,-0.296 0.685,-0.93 0.685,-1.417l0,-26.383c0.011,-0.482 -0.359,-1.001 -0.81,-1.16Zm-13.048,21.008c-2.636,2.652 -6.685,3.018 -9.707,1.099l-4.211,4.238c-0.082,0.082 -0.193,0.128 -0.307,0.128c-0.115,0 -0.226,-0.046 -0.308,-0.128l-1.848,-1.859c-0.08,-0.082 -0.125,-0.194 -0.125,-0.309c0,-0.115 0.045,-0.227 0.125,-0.309l4.213,-4.239c-1.908,-3.046 -1.544,-7.116 1.092,-9.768c3.06,-3.079 8.016,-3.079 11.076,0c3.059,3.079 3.059,8.067 0,11.147Zm-8.617,-2.476c0.404,0.412 0.884,0.739 1.413,0.964c0.53,0.224 1.098,0.341 1.673,0.343c0.575,0.002 1.143,-0.11 1.675,-0.33c0.531,-0.221 1.014,-0.544 1.42,-0.954c0.406,-0.408 0.728,-0.894 0.946,-1.429c0.22,-0.534 0.331,-1.107 0.329,-1.686c-0.003,-0.577 -0.118,-1.149 -0.342,-1.682c-0.223,-0.533 -0.549,-1.017 -0.957,-1.422c-0.404,-0.412 -0.884,-0.739 -1.413,-0.964c-0.53,-0.225 -1.099,-0.341 -1.673,-0.343c-0.575,-0.003 -1.143,0.11 -1.675,0.329c-0.531,0.221 -1.014,0.545 -1.42,0.954c-0.406,0.409 -0.728,0.894 -0.947,1.429c-0.219,0.534 -0.33,1.107 -0.328,1.686c0.003,0.578 0.118,1.15 0.342,1.682c0.223,0.534 0.548,1.017 0.957,1.423Z" style="fill:#f6c84f;fill-rule:nonzero;"/><path d="M55.31,193.867l-18.467,-6.333c-0.223,-0.076 -0.522,-0.115 -0.821,-0.115c-0.299,0 -0.597,0.039 -0.82,0.115l-18.467,6.333c-0.451,0.154 -0.82,0.679 -0.82,1.16l-0,26.384c-0,0.481 0.309,1.115 0.684,1.416l18.733,14.691c0.19,0.148 0.435,0.224 0.685,0.224c0.25,0 0.5,-0.076 0.685,-0.224l18.733,-14.691c0.375,-0.295 0.684,-0.929 0.684,-1.416l0,-26.384c0.011,-0.481 -0.358,-1.001 -0.809,-1.16Zm-13.049,21.008c-2.636,2.652 -6.684,3.019 -9.706,1.099l-4.212,4.239c-0.081,0.081 -0.192,0.127 -0.307,0.127c-0.115,0 -0.225,-0.046 -0.307,-0.127l-1.847,-1.859c-0.081,-0.083 -0.127,-0.194 -0.127,-0.309c0,-0.116 0.046,-0.227 0.127,-0.31l4.211,-4.238c-1.907,-3.047 -1.543,-7.116 1.093,-9.768c3.059,-3.08 8.016,-3.08 11.075,0c3.06,3.079 3.06,8.067 0,11.146Zm-8.616,-2.475c0.403,0.411 0.883,0.738 1.413,0.963c0.53,0.225 1.098,0.342 1.672,0.343c0.575,0.003 1.144,-0.11 1.676,-0.329c0.531,-0.221 1.013,-0.545 1.42,-0.954c0.406,-0.408 0.728,-0.894 0.946,-1.429c0.219,-0.534 0.331,-1.107 0.328,-1.686c-0.002,-0.578 -0.118,-1.15 -0.341,-1.682c-0.223,-0.534 -0.549,-1.017 -0.958,-1.423c-0.403,-0.412 -0.883,-0.739 -1.413,-0.964c-0.529,-0.224 -1.098,-0.341 -1.672,-0.343c-0.575,-0.002 -1.144,0.11 -1.675,0.33c-0.531,0.221 -1.014,0.544 -1.42,0.954c-0.406,0.408 -0.728,0.894 -0.947,1.429c-0.219,0.534 -0.33,1.107 -0.328,1.686c0.002,0.578 0.118,1.15 0.341,1.682c0.223,0.534 0.549,1.017 0.958,1.423Z" style="fill:#f6c84f;fill-rule:nonzero;"/><path d="M0,74.194l56.287,-0l0,50.322l-56.287,0l0,-50.322Zm51.597,45.747l-0,-34.311l-46.906,0.001l-0,34.31l46.906,0Zm-12.794,-23.971l-9.717,8.187c-1.583,-0.316 -3.285,0.155 -4.442,1.413c-1.723,1.885 -1.559,4.776 0.373,6.46c1.931,1.683 4.897,1.52 6.623,-0.362c1.154,-1.26 1.445,-2.965 0.943,-4.463l7.287,-10.309l-1.067,-0.926Zm-22.386,14.822l-7.036,0c0,-10.099 8.408,-18.299 18.763,-18.299c2.727,-0 5.321,0.569 7.662,1.592l-6.544,5.321l-1.118,-0.051c-6.471,0 -11.727,5.124 -11.727,11.437Zm30.489,0l-7.036,0c0,-1.976 -0.514,-3.834 -1.419,-5.455l4.055,-6.316c2.744,3.184 4.4,7.29 4.4,11.771Z" style="fill:#fd688d;"/><path d="M237.043,181.548l56.287,0l0,50.323l-56.287,0l0,-50.323Zm51.596,45.748l0,-34.311l-46.906,0l0,34.311l46.906,0Zm-12.793,-23.971l-9.717,8.186c-1.583,-0.316 -3.285,0.155 -4.442,1.413c-1.724,1.885 -1.56,4.777 0.373,6.46c1.93,1.684 4.897,1.521 6.623,-0.361c1.154,-1.261 1.445,-2.965 0.943,-4.463l7.287,-10.309l-1.067,-0.926Zm-22.386,14.821l-7.036,-0c0,-10.099 8.408,-18.299 18.762,-18.299c2.728,-0 5.322,0.57 7.663,1.592l-6.544,5.321l-1.119,-0.05c-6.47,-0 -11.726,5.123 -11.726,11.436Zm30.489,-0l-7.036,-0c0,-1.976 -0.514,-3.833 -1.419,-5.455l4.055,-6.315c2.744,3.184 4.4,7.29 4.4,11.77Z" style="fill:#fd688d;"/><path d="M174.222,0.387l-55.282,0l0,37.742l55.282,0l0,-37.742Zm-30.75,29.353l0.003,0l18.266,-18.237l-3.565,-3.56l-14.701,14.684l-8.406,-8.394l-3.565,3.556l11.968,11.951Z" style="fill:#01bf83;"/><rect x="142.393" y="38.129" width="8.376" height="8.387" style="fill:#01bf83;fill-rule:nonzero;"/><rect x="136.53" y="46.516" width="20.94" height="5.032" style="fill:#01bf83;fill-rule:nonzero;"/><path d="M174.222,261.226l-55.282,0l0,37.742l55.282,0l0,-37.742Zm-30.75,29.353l0.003,0l18.266,-18.237l-3.565,-3.56l-14.701,14.684l-8.406,-8.394l-3.565,3.556l11.968,11.951Z" style="fill:#01bf83;"/><rect x="142.393" y="298.968" width="8.376" height="8.387" style="fill:#01bf83;fill-rule:nonzero;"/><rect x="136.53" y="307.355" width="20.94" height="5.032" style="fill:#01bf83;fill-rule:nonzero;"/><g><path d="M145.953,95.161l0,-21.806" style="fill:none;fill-rule:nonzero;stroke:#f72e5c;stroke-width:1.5px;stroke-dasharray:3,3;"/><path d="M145.953,242.774l0,-21.806" style="fill:none;fill-rule:nonzero;stroke:#f72e5c;stroke-width:1.5px;stroke-dasharray:3,3;"/><path d="M200.699,125.253l18.602,-11.339" style="fill:none;fill-rule:nonzero;stroke:#f72e5c;stroke-width:1.5px;stroke-dasharray:3,3;"/><path d="M73.379,197.788l17.589,-10.904" style="fill:none;fill-rule:nonzero;stroke:#f72e5c;stroke-width:1.5px;stroke-dasharray:3,3;"/><path d="M219.172,197.209l-15.948,-9.245" style="fill:none;fill-rule:nonzero;stroke:#f72e5c;stroke-width:1.5px;stroke-dasharray:3,3;"/><path d="M90.93,125.219l-15.865,-9.387" style="fill:none;fill-rule:nonzero;stroke:#f72e5c;stroke-width:1.5px;stroke-dasharray:3,3;"/><path d="M145.744,220.339c34.347,0 62.192,-27.881 62.192,-62.274c0,-34.393 -27.845,-62.275 -62.192,-62.275c-34.348,0.001 -62.193,27.882 -62.193,62.275c0,34.393 27.845,62.274 62.193,62.274Z" style="fill:none;fill-rule:nonzero;stroke:#f72e5c;stroke-width:1.5px;stroke-dasharray:2,2;"/></g><path d="M169.527,123.678l-6.136,1.678l-10.329,2.785l-6.709,1.83l-7.889,2.175l-23.328,6.294l-3.734,14.723l9.567,9.574l7.242,7.286l6.861,-6.942l-0.039,-8.811l13.607,-13.618l2.63,2.594l-1.067,7.286l3.888,3.89l7.28,-1.068l2.591,2.632l-13.607,13.579l-8.842,-0.038l-6.861,6.866l5.565,5.608l10.443,10.451l14.789,-3.586l1.829,-6.865l2.212,-8.163l4.802,-17.966l2.135,-7.896l3.658,-13.618l-10.558,-10.68Z" style="fill:#f72e5c;fill-rule:nonzero;"/></g></svg>
