<svg width="76" height="94" viewBox="0 0 76 94" fill="none" xmlns="http://www.w3.org/2000/svg">
<g clip-path="url(#clip0_2130_358)">
<g opacity="0.2">
<g opacity="0.2">
<path opacity="0.2" d="M75.47 71.7249L38.491 93.7408L0.463623 71.7249L37.4426 49.8047L75.47 71.7249Z" fill="#1F1D21"/>
</g>
</g>
<path d="M0.177734 22.5463L38.2051 0.625732L75.8515 22.2604L37.8239 44.1809L0.177734 22.5463Z" fill="#00a8f8"/>
<path d="M37.8239 44.1813L37.4426 87.7366L75.4701 65.816L75.851 22.2607L37.8239 44.1813Z" fill="#0078d4"/>
<path d="M0.177734 22.5464V66.1016L37.4426 87.7362L37.8239 44.181L0.177734 22.5464Z" fill="#0098ec"/>
<path d="M37.5381 44.0854L37.6334 7.10645L69.8469 25.6913L69.752 62.6701L37.5381 44.0854Z" fill="#0098ec"/>
<path d="M37.5381 44.0854L6.18213 62.6701L6.27746 25.6913L37.6333 7.10645L37.5381 44.0854Z" fill="#0078d4"/>
<path d="M69.7516 62.67L37.5381 81.1595L6.18213 62.67L37.5381 44.0852L69.7516 62.67Z" fill="#00a8f8"/>
</g>
<defs>
<clipPath id="clip0_2130_358">
<rect width="75.8223" height="93.1151" fill="white" transform="translate(0.177734 0.625732)"/>
</clipPath>
</defs>
</svg>