<svg width="61" height="70" viewBox="0 0 61 70" fill="none" xmlns="http://www.w3.org/2000/svg">
<g clip-path="url(#clip0_2130_406)">
<path d="M6.41284 48.9226L12.4086 45.4578V38.5341V31.6104V24.6867L18.4044 21.2278L24.4002 24.6867L30.396 28.1515V21.2278V14.3042V7.38054L24.4002 10.8394L18.4044 14.3042L12.4086 17.7631L6.41284 21.2278V28.1515V35.0752V41.9989V48.9226Z" fill="#0078d4"/>
<path d="M24.4001 59.305L30.396 55.8461L36.3919 52.3813L30.396 55.8402V55.8461L24.4001 59.305Z" fill="#006cbf"/>
<path d="M48.3833 38.534V31.6102V24.6865L42.3876 28.1513L36.3919 31.6102L30.396 35.0751V41.9985V48.9222V55.84L36.3919 52.3811L42.3876 48.9222L48.3833 45.4574V38.534Z" fill="#0078d4"/>
<path d="M48.3833 17.7687L54.3793 14.304L48.3833 17.7629V17.7687Z" fill="#0061aa"/>
<path d="M60.3751 17.7688L54.3794 21.2277V28.1513V35.0751V41.9985V48.9222L48.3833 52.3811L42.3876 55.846L36.3919 59.3049L30.396 62.7697V69.6875L36.3919 66.2286L42.3876 62.7697L48.3833 59.3049L54.3794 55.846V55.84L60.3751 52.3811V45.4574V38.534V31.6102V24.6866V17.7688Z" fill="#0078d4"/>
<path fill-rule="evenodd" clip-rule="evenodd" d="M18.4045 28.1513L24.4003 31.6104L30.3961 35.0749V41.9986V48.9224V55.8402L24.4003 52.3813L18.4045 48.9224L12.4087 45.4575V38.5338V31.6102V24.6865L18.4045 28.1513Z" fill="#0088e0"/>
<path d="M30.396 55.8459V55.8403L24.4001 59.3048L30.396 55.8459Z" fill="#005595"/>
<path fill-rule="evenodd" clip-rule="evenodd" d="M6.41281 41.9988V35.075V28.1513V21.2277L0.416992 17.7629V24.6866V31.6102V38.5339V45.4577V52.3811L6.41281 55.84L12.4086 59.3045V52.3811L6.41281 48.9222V41.9988ZM12.4086 52.3811L18.4044 55.84L24.4002 59.3048L30.396 62.7693V69.6871L24.4002 66.2286L18.4044 62.7697V62.7637L12.4086 59.3045V52.3811Z" fill="#0088e0"/>
<path fill-rule="evenodd" clip-rule="evenodd" d="M36.3919 24.6866L30.396 28.1513V21.2277V14.304V7.38037L36.3919 10.8392L42.3876 14.3041L48.3833 17.7629V17.7688V24.6866L42.3876 21.2277L36.3919 24.6866ZM48.3833 31.6102V24.6866V17.7688L54.3794 21.2276V28.1513V35.0748V41.9986V48.9223L48.3833 45.4575V38.5337V31.6102Z" fill="#0088e0"/>
<path fill-rule="evenodd" clip-rule="evenodd" d="M6.41284 48.9224L12.4086 52.3813L18.4045 55.8402L24.4003 52.3813L18.4045 48.9224L12.4086 45.4575L6.41284 48.9224ZM24.4003 59.305L18.4045 55.8402L24.4003 52.3813L30.3961 55.8402L24.4003 59.305Z" fill="#0098ec"/>
<path d="M48.3833 45.4575L42.3876 48.9224L36.3919 52.3813L30.396 55.8461L24.4001 59.305L30.396 62.7698L36.3919 59.305L42.3876 55.8461L48.3833 52.3813L54.379 48.9224L48.3833 45.4575Z" fill="#0098ec"/>
<path fill-rule="evenodd" clip-rule="evenodd" d="M12.4086 17.763L18.4044 14.3041L24.4002 10.8393L30.396 7.38046L36.3919 3.91569L30.396 0.456787L24.4002 3.91569L18.4044 7.38046L12.4086 10.8393L6.41281 14.3041L0.416992 17.763L6.41281 21.2278L12.4086 17.763ZM42.3877 7.38052L48.3834 10.8394L54.3791 14.3042L54.3794 14.3042L60.3751 17.7689L54.3794 21.2278L48.3834 17.7689L54.3511 14.3204L48.3834 17.7631L42.3877 14.3042L36.3919 10.8394L30.396 7.38046L36.3919 3.91569L42.3877 7.38052Z" fill="#0098ec"/>
<path fill-rule="evenodd" clip-rule="evenodd" d="M24.4003 31.6101L18.4047 28.1513L12.4087 24.6867L18.4045 21.2278L24.4001 24.6866L30.3961 28.1512L24.4003 31.6101ZM24.4003 31.6101L30.3961 28.1512L36.3917 24.6867L42.3878 21.2278L48.3835 24.6867L42.3878 28.1514L36.3917 31.6103L30.3961 35.0751L24.4003 31.6101Z" fill="#0098ec"/>
</g>
<defs>
<clipPath id="clip0_2130_406">
<rect width="60" height="69.2308" fill="white" transform="translate(0.416992 0.456787)"/>
</clipPath>
</defs>
</svg>