<svg width="256px" height="72px" viewBox="0 0 50 48" xmlns="http://www.w3.org/2000/svg" xmlns:xlink="http://www.w3.org/1999/xlink"><linearGradient id="a" gradientUnits="userSpaceOnUse" x1="24.200474" x2="24.111375" y1=".990047" y2="48.034597"><stop offset="0" stop-color="#80b3ff"/><stop offset="1" stop-color="#298fc4"/></linearGradient><linearGradient id="b" gradientUnits="userSpaceOnUse" x1="23.717162" x2="24.250978" y1="46.748524" y2="1.140137"><stop offset="0" stop-color="#f2f2f2"/><stop offset="1" stop-color="#f9f9f9"/></linearGradient><circle cx="24" cy="24" fill="url(#a)" r="23.5"/><path d="m24 0c-13.243463 0-24 10.756537-24 24s10.756537 24 24 24 24-10.756537 24-24-10.756537-24-24-24zm0 1.9199219c12.205818 0 22.080078 9.8742601 22.080078 22.0800781 0 2.487579-.415464 4.875429-1.171875 7.105469h-11.009765c-.383001-.855-4.695344-10.719.472656-18.5.133-.234.16775-.52325.09375-.78125-.035-.16-.11275-.3125-.21875-.4375-.199-.211-.49225-.329453-.78125-.314453h-.001953v.001953c-9.316.141-14.529297 5.453-17.279297 10.625-2.516 4.734-2.896703 8.64825-2.970703 9.40625h-10.1210941c-.7564111-2.23004-1.171875-4.61789-1.171875-7.105469 0-12.205818 9.8742601-22.0800781 22.0800781-22.0800781zm8.023438 11.3710941c-4.461 8.93.222656 19.25.222656 19.25.035.043.078.086.125.125.172.254.469343.423453.777344.439453h10.96875c-3.465115 7.654201-11.160059 12.974609-20.117188 12.974609s-16.6520734-5.320408-20.1171875-12.974609h10.1113285c.285 0 .563-.12875.75-.34375.105-.125.18375-.277453.21875-.439453.004-.043.004-.086 0-.125 0 0 .469-4.738 3-9.5 2.363-4.441 6.564547-8.73425 14.060547-9.40625z" fill="url(#b)"/></svg>